<svg width="24" height="24" viewBox="0 0 24 24" fill="none" xmlns="http://www.w3.org/2000/svg">
<path fill-rule="evenodd" clip-rule="evenodd" d="M12 2C6.47715 2 2 6.47715 2 12C2 17.5228 6.47715 22 12 22C17.5228 22 22 17.5228 22 12C22 6.47715 17.5228 2 12 2ZM6.21967 14.7722C5.92678 14.4685 5.92678 13.976 6.21967 13.6722L11.4697 8.22781C11.7626 7.92406 12.2374 7.92406 12.5303 8.22781L17.7803 13.6723C18.0732 13.976 18.0732 14.4685 17.7803 14.7722C17.4874 15.0759 17.0126 15.0759 16.7197 14.7722L12 9.87772L7.28033 14.7722C6.98744 15.0759 6.51256 15.0759 6.21967 14.7722Z" fill="#0A0A0A"/>
</svg>
