<svg width="24" height="24" viewBox="0 0 24 24" fill="none" xmlns="http://www.w3.org/2000/svg">
<path fill-rule="evenodd" clip-rule="evenodd" d="M12 2C6.47715 2 2 6.47715 2 12C2 17.5228 6.47715 22 12 22C17.5228 22 22 17.5228 22 12C22 6.47715 17.5228 2 12 2ZM14.7722 17.7803C14.4685 18.0732 13.976 18.0732 13.6722 17.7803L8.22781 12.5303C7.92406 12.2374 7.92406 11.7626 8.22781 11.4697L13.6722 6.21967C13.976 5.92678 14.4685 5.92678 14.7722 6.21967C15.0759 6.51256 15.0759 6.98744 14.7722 7.28033L9.87772 12L14.7722 16.7197C15.0759 17.0126 15.0759 17.4874 14.7722 17.7803Z" fill="#0A0A0A"/>
</svg>
