<svg width="24" height="24" viewBox="0 0 24 24" fill="none" xmlns="http://www.w3.org/2000/svg">
<path fill-rule="evenodd" clip-rule="evenodd" d="M12 2C9.23858 2 7 4.23858 7 7C7 9.76142 9.23858 12 12 12C14.7614 12 17 9.76142 17 7C17 4.23858 14.7614 2 12 2ZM12 13C8.03683 13 5.48769 14.4462 4.13838 16.655C3.30094 18.0259 3.62147 19.4526 4.47764 20.4474C5.29895 21.4018 6.62227 22 7.99999 22H16C17.3777 22 18.701 21.4018 19.5224 20.4474C20.3785 19.4526 20.6991 18.0259 19.8616 16.655C18.5123 14.4462 15.9632 13 12 13ZM16.5751 15.5186C16.841 15.8362 16.799 16.3093 16.4814 16.5751L11.7025 20.5751C11.4155 20.8153 10.9954 20.8072 10.7179 20.5561L8.49674 18.5459C8.18963 18.268 8.16598 17.7937 8.44392 17.4866C8.72187 17.1795 9.19615 17.1558 9.50327 17.4338L11.2404 19.0059L15.5186 15.4249C15.8362 15.159 16.3093 15.201 16.5751 15.5186Z" fill="#0A0A0A"/>
</svg>
