<svg width="24" height="24" viewBox="0 0 24 24" fill="none" xmlns="http://www.w3.org/2000/svg">
<g clip-path="url(#clip0_215_11280)">
<path d="M21.1589 2.6475C19.7611 1.19606 17.9304 0.281992 15.9672 0.0553312C14.0038 -0.17135 12.0249 0.302682 10.355 1.39993C8.68514 2.49701 7.42356 4.15194 6.77767 6.0927C4.83307 6.62442 3.12555 7.84032 1.94598 9.53364C0.766489 11.2268 0.187781 13.2927 0.308349 15.3798C0.428895 17.4667 1.24146 19.4457 2.60738 20.9801C3.97346 22.5144 5.8086 23.509 7.80065 23.7945C9.79271 24.0802 11.8183 23.6392 13.5327 22.5467C15.2471 21.4542 16.5444 19.7777 17.2038 17.8028C19.1894 17.2632 20.9281 16.0113 22.1122 14.2684C23.2965 12.5254 23.8502 10.4033 23.6758 8.27712C23.5014 6.15102 22.6099 4.15676 21.1589 2.6475ZM16.7083 14.8454C16.7092 15.5531 16.6189 16.258 16.4402 16.9409C15.9676 17.0354 15.4872 17.0821 15.006 17.0804C14.5441 17.0807 14.0833 17.0382 13.6287 16.9534L16.6449 13.8172C16.6879 14.158 16.7088 14.5015 16.7083 14.8454ZM12.5349 16.6602C11.4604 16.2862 10.4798 15.6674 9.66481 14.8489L14.7772 9.53316C15.5404 10.4234 16.0991 11.4823 16.4109 12.63L12.5349 16.6602ZM9.00282 14.1068C8.26666 13.1699 7.74668 12.0703 7.48268 10.8922L11.1111 7.11942C12.2148 7.4436 13.2333 8.02446 14.0895 8.81802L9.00282 14.1068ZM7.3004 9.6513C7.28489 9.45282 7.27816 9.24894 7.27816 9.04512C7.27605 8.33754 7.3652 7.63266 7.54298 6.94968C8.343 6.79278 9.16186 6.76812 9.96926 6.8763L7.3004 9.6513ZM8.98052 22.8806C7.15166 22.8792 5.38239 22.2035 3.98754 20.9737C2.5926 19.7438 1.6622 18.0395 1.36198 16.1636C1.06157 14.2877 1.41071 12.3619 2.3472 10.7284C3.28383 9.09492 4.74705 7.8597 6.47679 7.2423C6.26565 8.33556 6.24867 9.45966 6.42692 10.559C6.4885 10.951 6.57584 11.3381 6.68823 11.7178C7.02516 12.8555 7.57693 13.9121 8.31162 14.8253C8.48184 15.0382 8.66237 15.2437 8.85326 15.4421C8.89283 15.4833 8.93404 15.5261 8.97543 15.5655C9.78235 16.3762 10.7331 17.0162 11.7749 17.45C12.1127 17.591 12.4591 17.7086 12.8118 17.8023C13.5285 17.9953 14.2657 18.0926 15.006 18.0919C15.3649 18.0925 15.7233 18.0685 16.079 18.0203C15.4811 19.4624 14.4904 20.691 13.229 21.5546C11.9676 22.4181 10.4908 22.8794 8.98052 22.8806ZM20.471 14.7273C19.6391 15.5967 18.6259 16.2552 17.5097 16.6513C17.6239 16.0567 17.6816 15.4519 17.6817 14.8454C17.6823 14.2052 17.6172 13.5669 17.4874 12.9412C17.4127 12.5617 17.3122 12.1883 17.1865 11.8237C16.7512 10.554 16.0499 9.40092 15.1332 8.44788C14.2166 7.49478 13.1077 6.7656 11.8867 6.31308C11.5361 6.18222 11.1769 6.0777 10.8118 6.00018C10.2101 5.86503 9.59615 5.79736 8.98058 5.79803C8.62069 5.79803 8.26134 5.8207 7.90403 5.86604C8.50626 4.41194 9.50817 3.17504 10.784 2.31082C12.0597 1.44659 13.5526 0.993222 15.0752 1.0079C16.5979 1.0224 18.0825 1.50428 19.3427 2.393C20.603 3.28154 21.5827 4.53731 22.159 6.00276C22.7353 7.46838 22.8827 9.07812 22.5824 10.6303C22.2821 12.1824 21.5473 13.6076 20.471 14.7273Z" fill="#0A0A0A"/>
</g>
<defs>
<clipPath id="clip0_215_11280">
<rect width="24" height="24" fill="white"/>
</clipPath>
</defs>
</svg>
