<svg width="24" height="24" viewBox="0 0 24 24" fill="none" xmlns="http://www.w3.org/2000/svg">
<g clip-path="url(#clip0_215_11279)">
<path fill-rule="evenodd" clip-rule="evenodd" d="M19.6315 19.8223C17.5932 21.9116 14.8829 23.0623 12 23.0623C9.11705 23.0623 6.40681 21.9116 4.36848 19.8223C2.33015 17.733 1.20751 14.955 1.20751 12C1.20751 9.045 2.33015 6.267 4.36848 4.17772C6.40722 2.08843 9.11705 0.937716 12 0.937716C14.8829 0.937716 17.5932 2.08843 19.6315 4.17772C21.6698 6.267 22.7924 9.045 22.7924 12C22.7924 14.955 21.6698 17.733 19.6315 19.8223ZM20.2783 3.51472C18.0673 1.248 15.1271 0 12 0C8.8729 0 5.93266 1.248 3.72166 3.51472C1.51022 5.781 0.292664 8.79474 0.292664 12C0.292664 15.2053 1.51022 18.219 3.72166 20.4853C5.93266 22.752 8.8729 24 12 24C15.1271 24 18.0673 22.752 20.2783 20.4853C22.4893 18.219 23.7073 15.2053 23.7073 12C23.7073 8.79474 22.4897 5.781 20.2783 3.51472ZM8.2695 11.0828C9.07819 11.0828 9.73584 10.4087 9.73584 9.57984C9.73584 8.751 9.07819 8.07726 8.2695 8.07726C7.46088 8.07726 6.80316 8.75142 6.80316 9.57984C6.80316 10.4083 7.46088 11.0828 8.2695 11.0828ZM15.766 11.0828C16.5746 11.0828 17.2323 10.4087 17.2323 9.57984C17.2323 8.751 16.5746 8.07726 15.766 8.07726C14.9573 8.07726 14.2997 8.75142 14.2997 9.57984C14.2997 10.4083 14.9573 11.0828 15.766 11.0828ZM17.3159 13.824C17.0755 13.7452 16.818 13.8806 16.741 14.127C16.7323 14.1557 15.7953 17.01 12.018 17.01C10.4404 17.01 9.16804 16.5278 8.2369 15.5773C7.53739 14.8628 7.29616 14.1326 7.29446 14.127C7.21754 13.8806 6.95998 13.7447 6.71957 13.824C6.47916 13.9028 6.34658 14.1668 6.42355 14.4133C6.43526 14.4506 6.71746 15.3317 7.55454 16.2034C8.31885 16.9993 9.71331 17.9477 12.018 17.9477C14.3227 17.9477 15.7171 16.9993 16.4814 16.2034C17.3184 15.3317 17.6007 14.4506 17.6124 14.4133C17.6893 14.1668 17.5568 13.9028 17.3159 13.824Z" fill="#0A0A0A"/>
</g>
<defs>
<clipPath id="clip0_215_11279">
<rect width="24" height="24" fill="white"/>
</clipPath>
</defs>
</svg>
