<svg width="24" height="24" viewBox="0 0 24 24" fill="none" xmlns="http://www.w3.org/2000/svg">
<path d="M17.9974 21.9559L17.2792 17.8299C17.1781 17.2488 17.3735 16.6561 17.802 16.2447L20.844 13.3228C21.0518 13.1233 21.1253 12.83 21.0355 12.558C20.9458 12.2861 20.7116 12.0916 20.4243 12.0504L16.2202 11.4484C15.628 11.3636 15.1164 10.9973 14.8516 10.4687L12.9718 6.71522C12.8434 6.45863 12.5832 6.29927 12.293 6.29927C12.0029 6.29927 11.7427 6.45863 11.6142 6.71501L9.73397 10.469C9.46921 10.9975 8.95756 11.3638 8.36542 11.4486L4.16108 12.0506C3.87371 12.0918 3.63961 12.2863 3.54986 12.5582C3.46008 12.8303 3.53356 13.1233 3.74136 13.3231L6.78342 16.2449C7.21185 16.6564 7.40727 17.249 7.30619 17.8303L6.58802 21.9561C6.5389 22.2379 6.65432 22.5176 6.88929 22.6858C7.12427 22.8541 7.42966 22.876 7.68659 22.7425L11.4468 20.7946C11.9763 20.5202 12.6089 20.52 13.1386 20.7946L16.8988 22.7425C17.0105 22.8006 17.1314 22.8291 17.2518 22.8291C17.4081 22.8291 17.5635 22.7809 17.6961 22.6858C17.9311 22.5175 18.0465 22.2377 17.9974 21.9559ZM16.523 17.9579L17.2375 22.0633L13.4959 20.125C13.1192 19.9299 12.706 19.8322 12.293 19.8322C11.8798 19.8322 11.4666 19.9299 11.0901 20.125L7.34838 22.0631L8.06287 17.9579C8.20677 17.1314 7.92876 16.2886 7.3195 15.7033L4.29246 12.7958L8.47571 12.1967C9.31804 12.0761 10.0455 11.5552 10.422 10.8035L12.2929 7.06837L14.1638 10.8035C14.5403 11.5555 15.2681 12.0761 16.1101 12.1967L20.2934 12.7958L17.2664 15.7033C16.6571 16.2886 16.3788 17.1314 16.523 17.9579Z" fill="#0A0A0A"/>
<path d="M12.2928 3.97189C12.5047 3.97189 12.6764 3.80269 12.6764 3.59386V1.54876C12.6764 1.33993 12.5047 1.17073 12.2928 1.17073C12.0808 1.17073 11.9091 1.33993 11.9091 1.54876V3.59364C11.9089 3.80247 12.0808 3.97189 12.2928 3.97189Z" fill="#0A0A0A"/>
<path d="M6.03681 5.20606C6.10789 5.32728 6.2368 5.39518 6.36961 5.39518C6.43482 5.39518 6.50068 5.37891 6.56111 5.34442C6.74457 5.24012 6.80761 5.0088 6.70153 4.82782L5.72861 3.16772C5.62275 2.98695 5.38799 2.92484 5.20431 3.02936C5.02086 3.13367 4.95782 3.36498 5.0639 3.54597L6.03681 5.20606Z" fill="#0A0A0A"/>
<path d="M18.0244 5.34435C18.0848 5.37862 18.1507 5.39511 18.2159 5.39511C18.3485 5.39511 18.4776 5.32721 18.5487 5.20578L19.5216 3.5448C19.6275 3.36403 19.5647 3.13272 19.381 3.0282C19.1973 2.92389 18.9628 2.98579 18.8567 3.16677L17.8838 4.82774C17.7779 5.00873 17.841 5.24004 18.0244 5.34435Z" fill="#0A0A0A"/>
</svg>
