<svg width="32" height="32" viewBox="0 0 32 32" fill="none" xmlns="http://www.w3.org/2000/svg">
<rect width="32" height="32" rx="16" fill="#B9B9B9"/>
<path fill-rule="evenodd" clip-rule="evenodd" d="M16.0001 6C13.2386 6 11.0001 8.23858 11.0001 11C11.0001 13.7614 13.2386 16 16.0001 16C18.7615 16 21.0001 13.7614 21.0001 11C21.0001 8.23858 18.7615 6 16.0001 6Z" fill="#171717"/>
<path fill-rule="evenodd" clip-rule="evenodd" d="M16.0001 17C12.0369 17 9.48775 18.4462 8.13844 20.655C7.301 22.0259 7.62153 23.4526 8.4777 24.4474C9.29901 25.4018 10.6223 26 12.0001 26H20.0001C21.3778 26 22.7011 25.4018 23.5224 24.4474C24.3786 23.4526 24.6991 22.0259 23.8617 20.655C22.5124 18.4462 19.9632 17 16.0001 17Z" fill="#171717"/>
</svg>
