<svg width="24" height="24" viewBox="0 0 24 24" fill="none" xmlns="http://www.w3.org/2000/svg">
<path fill-rule="evenodd" clip-rule="evenodd" d="M12 3.48148C7.29535 3.48148 3.48148 7.29535 3.48148 12C3.48148 16.7046 7.29535 20.5185 12 20.5185C16.7046 20.5185 20.5185 16.7046 20.5185 12C20.5185 7.29535 16.7046 3.48148 12 3.48148ZM2 12C2 6.47715 6.47715 2 12 2C17.5228 2 22 6.47715 22 12C22 17.5228 17.5228 22 12 22C6.47715 22 2 17.5228 2 12ZM12 7.55556C12.4091 7.55556 12.7407 7.8872 12.7407 8.2963V12C12.7407 12.4091 12.4091 12.7407 12 12.7407C11.5909 12.7407 11.2593 12.4091 11.2593 12V8.2963C11.2593 7.8872 11.5909 7.55556 12 7.55556ZM11.2593 15.7037C11.2593 15.2946 11.5909 14.963 12 14.963H12.0093C12.4184 14.963 12.75 15.2946 12.75 15.7037C12.75 16.1128 12.4184 16.4444 12.0093 16.4444H12C11.5909 16.4444 11.2593 16.1128 11.2593 15.7037Z" fill="white"/>
</svg>
