<svg width="40" height="40" viewBox="0 0 40 40" fill="none" xmlns="http://www.w3.org/2000/svg">
<g clip-path="url(#clip0_1014_3242)">
<path d="M35.2648 4.4125C32.9352 1.99343 29.8839 0.469986 26.612 0.0922187C23.3397 -0.285584 20.0415 0.50447 17.2583 2.33322C14.4752 4.16168 12.3726 6.9199 11.2961 10.1545C8.05508 11.0407 5.20922 13.0672 3.24327 15.8894C1.27745 18.7113 0.312939 22.1545 0.513884 25.633C0.714795 29.1112 2.06906 32.4095 4.3456 34.9669C6.62241 37.524 9.68097 39.1817 13.0011 39.6575C16.3212 40.1336 19.6971 39.3986 22.5545 37.5779C25.4118 35.757 27.574 32.9629 28.673 29.6713C31.9823 28.772 34.8801 26.6855 36.8536 23.7806C38.8275 20.8757 39.7503 17.3388 39.4597 13.7952C39.169 10.2517 37.6831 6.92794 35.2648 4.4125ZM27.8472 24.7424C27.8486 25.9219 27.6981 27.0967 27.4003 28.2348C26.6127 28.3923 25.8119 28.4701 25.0099 28.4673C24.2402 28.4679 23.4721 28.397 22.7144 28.2556L27.7414 23.0286C27.8131 23.5967 27.848 24.1692 27.8472 24.7424ZM20.8914 27.767C19.1006 27.1436 17.4663 26.1124 16.108 24.7482L24.6287 15.8886C25.9007 17.3723 26.8318 19.1372 27.3514 21.05L20.8914 27.767ZM15.0047 23.5114C13.7777 21.9499 12.9111 20.1171 12.4711 18.1536L18.5184 11.8657C20.3579 12.406 22.0555 13.3741 23.4824 14.6967L15.0047 23.5114ZM12.1673 16.0855C12.1415 15.7547 12.1302 15.4149 12.1302 15.0752C12.1267 13.8959 12.2753 12.7211 12.5716 11.5828C13.905 11.3213 15.2697 11.2802 16.6154 11.4605L12.1673 16.0855ZM14.9675 38.1343C11.9194 38.132 8.97062 37.0059 6.64587 34.9562C4.32097 32.9064 2.77031 30.0659 2.26993 26.9394C1.76926 23.8128 2.35115 20.6031 3.91197 17.8806C5.47302 15.1582 7.91172 13.0995 10.7946 12.0705C10.4427 13.8926 10.4144 15.7661 10.7115 17.5984C10.8141 18.2517 10.9597 18.8968 11.147 19.5296C11.7086 21.4258 12.6282 23.1868 13.8527 24.7088C14.1364 25.0636 14.4373 25.4061 14.7554 25.7369C14.8214 25.8055 14.89 25.8769 14.959 25.9425C16.3039 27.2937 17.8885 28.3604 19.6249 29.0833C20.1878 29.3183 20.7652 29.5144 21.353 29.6705C22.5474 29.9922 23.7762 30.1544 25.0099 30.1531C25.6082 30.1542 26.2054 30.1142 26.7983 30.0339C25.8018 32.4374 24.1507 34.485 22.0484 35.9243C19.946 37.3635 17.4847 38.1324 14.9675 38.1343ZM34.1182 24.5455C32.7318 25.9945 31.0431 27.092 29.1828 27.7521C29.3731 26.7611 29.4693 25.7531 29.4694 24.7424C29.4705 23.6754 29.362 22.6115 29.1456 21.5686C29.0212 20.9361 28.8536 20.3138 28.6442 19.7062C27.9186 17.59 26.7497 15.6682 25.222 14.0798C23.6943 12.4913 21.8461 11.276 19.8111 10.5218C19.2268 10.3037 18.6281 10.1295 18.0197 10.0003C17.0168 9.77505 15.9935 9.66227 14.9676 9.66338C14.3678 9.66338 13.7689 9.70116 13.1734 9.77673C14.1771 7.35324 15.8469 5.29174 17.9733 3.85136C20.0994 2.41098 22.5876 1.65537 25.1254 1.67984C27.6632 1.704 30.1374 2.50713 32.2378 3.98833C34.3383 5.46924 35.9712 7.56218 36.9317 10.0046C37.8922 12.4473 38.1377 15.1302 37.6373 17.7171C37.1369 20.304 35.9122 22.6793 34.1182 24.5455Z" fill="white"/>
</g>
<defs>
<clipPath id="clip0_1014_3242">
<rect width="40" height="40" fill="white"/>
</clipPath>
</defs>
</svg>
