<svg width="34" height="25" viewBox="0 0 34 25" fill="none" xmlns="http://www.w3.org/2000/svg">
<rect x="0.5" y="1.11035" width="33" height="23" rx="3.5" fill="#1F72CD"/>
<rect x="0.5" y="1.11035" width="33" height="23" rx="3.5" stroke="#F9F7F6"/>
<path fill-rule="evenodd" clip-rule="evenodd" d="M6.09542 9.11035L2.91431 16.3571H6.72254L7.19465 15.2017H8.27379L8.7459 16.3571H12.9377V15.4752L13.3112 16.3571H15.4795L15.8531 15.4566V16.3571H24.5709L25.6309 15.2317L26.6235 16.3571L31.1011 16.3664L27.91 12.754L31.1011 9.11035H26.6929L25.661 10.215L24.6997 9.11035H15.2159L14.4015 10.9808L13.568 9.11035H9.76774V9.96221L9.34498 9.11035H6.09542ZM6.83229 10.1394H8.6886L10.7986 15.0535V10.1394H12.8322L14.4619 13.6628L15.9639 10.1394H17.9873V15.3394H16.7561L16.746 11.2647L14.9511 15.3394H13.8498L12.0448 11.2647V15.3394H9.51203L9.03187 14.1736H6.43769L5.95851 15.3384H4.60147L6.83229 10.1394ZM24.1198 10.1394H19.1137V15.3363H24.0423L25.6309 13.614L27.1621 15.3363H28.7627L26.4362 12.7529L28.7627 10.1394H27.2315L25.651 11.842L24.1198 10.1394ZM7.73532 11.0192L6.88064 13.0959H8.58901L7.73532 11.0192ZM20.3499 12.1653V11.2161V11.2151H23.4736L24.8366 12.7333L23.4132 14.2597H20.3499V13.2233H23.081V12.1653H20.3499Z" fill="white"/>
</svg>
