<svg width="26" height="26" viewBox="0 0 26 26" fill="none" xmlns="http://www.w3.org/2000/svg">
<path fill-rule="evenodd" clip-rule="evenodd" d="M13 0.5C6.09644 0.5 0.5 6.09644 0.5 13C0.5 19.9036 6.09644 25.5 13 25.5C19.9036 25.5 25.5 19.9036 25.5 13C25.5 6.09644 19.9036 0.5 13 0.5ZM9.53476 5.77459C9.91443 5.40847 10.53 5.40847 10.9097 5.77459L17.7152 12.3371C18.0949 12.7032 18.0949 13.2968 17.7152 13.6629L10.9097 20.2254C10.53 20.5915 9.91443 20.5915 9.53476 20.2254C9.15508 19.8593 9.15508 19.2657 9.53476 18.8996L15.6528 13L9.53476 7.10041C9.15508 6.7343 9.15508 6.1407 9.53476 5.77459Z" fill="#1D4688"/>
</svg>
