<svg width="24" height="24" viewBox="0 0 24 24" fill="none" xmlns="http://www.w3.org/2000/svg">
<path fill-rule="evenodd" clip-rule="evenodd" d="M12 2C6.47715 2 2 6.47715 2 12C2 17.5228 6.47715 22 12 22C17.5228 22 22 17.5228 22 12C22 6.47715 17.5228 2 12 2ZM17.7803 9.22781C18.0732 9.53155 18.0732 10.024 17.7803 10.3278L12.5303 15.7722C12.2374 16.0759 11.7626 16.0759 11.4697 15.7722L6.21967 10.3277C5.92678 10.024 5.92678 9.53155 6.21967 9.22781C6.51256 8.92406 6.98744 8.92406 7.28033 9.22781L12 14.1223L16.7197 9.22781C17.0126 8.92406 17.4874 8.92406 17.7803 9.22781Z" fill="#0A0A0A"/>
</svg>
