<svg width="22" height="22" viewBox="0 0 22 22" fill="none" xmlns="http://www.w3.org/2000/svg">
<path fill-rule="evenodd" clip-rule="evenodd" d="M16.0695 5.93054C16.338 6.19902 16.338 6.63432 16.0695 6.90281L6.9028 16.0695C6.63431 16.338 6.19901 16.338 5.93053 16.0695C5.66204 15.801 5.66204 15.3657 5.93053 15.0972L15.0972 5.93054C15.3657 5.66205 15.801 5.66205 16.0695 5.93054Z" fill="white"/>
<path fill-rule="evenodd" clip-rule="evenodd" d="M5.72916 6.41667C5.72916 6.03698 6.03697 5.72917 6.41666 5.72917H15.5833C15.963 5.72917 16.2708 6.03698 16.2708 6.41667V15.5833C16.2708 15.963 15.963 16.2708 15.5833 16.2708C15.2036 16.2708 14.8958 15.963 14.8958 15.5833V7.10417H6.41666C6.03697 7.10417 5.72916 6.79637 5.72916 6.41667Z" fill="white"/>
</svg>
