<svg width="24" height="24" viewBox="0 0 24 24" fill="none" xmlns="http://www.w3.org/2000/svg">
<path fill-rule="evenodd" clip-rule="evenodd" d="M12 2C6.47715 2 2 6.47715 2 12C2 17.5228 6.47715 22 12 22C17.5228 22 22 17.5228 22 12C22 6.47715 17.5228 2 12 2ZM9.22781 6.21967C9.53155 5.92678 10.024 5.92678 10.3278 6.21967L15.7722 11.4697C16.0759 11.7626 16.0759 12.2374 15.7722 12.5303L10.3278 17.7803C10.024 18.0732 9.53155 18.0732 9.22781 17.7803C8.92406 17.4874 8.92406 17.0126 9.22781 16.7197L14.1223 12L9.22781 7.28033C8.92406 6.98744 8.92406 6.51256 9.22781 6.21967Z" fill="#0A0A0A"/>
</svg>
