<svg width="24" height="24" viewBox="0 0 24 24" fill="none" xmlns="http://www.w3.org/2000/svg">
<g clip-path="url(#clip0_643_29308)">
<path fill-rule="evenodd" clip-rule="evenodd" d="M11.2574 1.54995C10.5274 1.54995 9.82798 1.71205 9.32335 2.004L9.32073 2.00551L3.62096 5.26138C3.13576 5.53825 2.66255 6.02265 2.28787 6.61488L11.2573 11.964L20.2245 6.61113C19.8502 6.0206 19.3782 5.53779 18.894 5.26151L13.1914 2.004C12.6868 1.71206 11.9874 1.54995 11.2574 1.54995ZM20.7139 7.60007L11.8074 12.9167V22.4179C12.3316 22.3579 12.8155 22.2125 13.1914 21.995L13.1949 21.993L14.6225 21.181C14.1852 20.4611 13.9218 19.603 13.9096 18.6971C13.8746 17.1443 14.5449 15.7348 15.6275 14.8051L15.63 14.803C15.7684 14.6855 15.9156 14.5757 16.0701 14.4741C16.8325 13.9561 17.7448 13.6507 18.7226 13.6494C19.5399 13.6314 20.3004 13.8216 20.9648 14.1708V8.88661C20.9648 8.48554 20.8761 8.04262 20.7139 7.60007ZM18.7351 14.7494C19.3348 14.7502 19.8901 14.8733 20.3781 15.109C21.5819 15.7044 22.415 16.9804 22.4486 18.5122L22.4487 18.5144C22.4673 19.2344 22.2812 19.9164 21.9448 20.5037L21.938 20.5161C21.7549 20.8556 21.505 21.1712 21.2262 21.4298L21.2202 21.4355C20.5798 22.0476 19.7378 22.4198 18.8003 22.4492C17.6442 22.4729 16.6009 21.9527 15.9098 21.1096C15.8915 21.0738 15.8692 21.0399 15.843 21.0084C15.7322 20.8752 15.6367 20.7396 15.5613 20.6016C15.5579 20.5952 15.5543 20.5889 15.5505 20.5827C15.2065 20.0078 15.0095 19.3244 15.0095 18.5992C15.0095 17.3789 15.5541 16.292 16.4087 15.5931L16.4097 15.5924C16.4969 15.5207 16.5872 15.453 16.6801 15.3894C17.2675 15.0048 18.005 14.7666 18.7351 14.7494ZM15.289 22.0674C16.1789 23.0061 17.4378 23.5783 18.826 23.5489L18.8312 23.5487C20.0472 23.5115 21.1457 23.027 21.9772 22.2335C22.336 21.9002 22.66 21.4931 22.9028 21.0444C23.3326 20.2914 23.5721 19.4141 23.5483 18.487C23.5178 17.1074 22.961 15.8592 22.0648 14.9762V8.88661C22.0648 8.00961 21.7632 7.07453 21.3024 6.2692C20.842 5.46456 20.1918 4.73555 19.4392 4.30611L13.7423 1.05186C13.7418 1.05159 13.7414 1.05132 13.7409 1.05105C13.0289 0.63959 12.1279 0.449951 11.2574 0.449951C10.3869 0.449951 9.48585 0.63959 8.77389 1.05105L3.07557 4.30611C3.07549 4.30615 3.07564 4.30607 3.07557 4.30611C2.32308 4.73557 1.67271 5.46463 1.21235 6.2692C0.751555 7.07453 0.449951 8.00961 0.449951 8.88661V15.1124C0.449951 15.9894 0.751555 16.9244 1.21235 17.7298C1.67271 18.5343 2.32286 19.2633 3.07535 19.6927C3.07527 19.6927 3.07542 19.6928 3.07535 19.6927L8.7725 22.9471C8.77302 22.9474 8.77354 22.9477 8.77406 22.948C9.48599 23.3594 10.3869 23.549 11.2574 23.549C12.1277 23.549 13.0285 23.3595 13.7404 22.9482C13.741 22.9479 13.7417 22.9475 13.7423 22.9471L15.289 22.0674ZM10.7074 22.4179V12.9168L1.79931 7.60428C1.63817 8.04542 1.54995 8.48681 1.54995 8.88661V15.1124C1.54995 15.7533 1.77669 16.5011 2.16711 17.1835C2.55793 17.8665 3.0818 18.4299 3.62074 18.7375L9.32335 21.995C9.69924 22.2125 10.1832 22.3579 10.7074 22.4179ZM20.7625 17.0781C20.9768 17.2933 20.9761 17.6415 20.7609 17.8559L18.5301 20.0778C18.3168 20.2903 17.9722 20.2917 17.7571 20.081L16.6791 19.0251C16.4621 18.8126 16.4584 18.4644 16.671 18.2474C16.8835 18.0304 17.2318 18.0267 17.4488 18.2393L18.1387 18.9151L19.9846 17.0765C20.1999 16.8622 20.5481 16.8629 20.7625 17.0781Z" fill="white"/>
</g>
<defs>
<clipPath id="clip0_643_29308">
<rect width="24" height="24" fill="white"/>
</clipPath>
</defs>
</svg>
