<svg width="24" height="24" viewBox="0 0 24 24" fill="none" xmlns="http://www.w3.org/2000/svg">
<g clip-path="url(#clip0_329_7282)">
<path fill-rule="evenodd" clip-rule="evenodd" d="M11.2575 1.55C10.5275 1.55 9.82804 1.71209 9.32341 2.00404L9.32079 2.00556L3.62102 5.26143C3.13582 5.53829 2.66261 6.02269 2.28793 6.61493L11.2573 11.964L20.2246 6.61118C19.8503 6.02065 19.3783 5.53783 18.8941 5.26156L13.1915 2.00405C12.6869 1.7121 11.9874 1.55 11.2575 1.55ZM20.714 7.60012L11.8075 12.9167V22.418C12.3316 22.3579 12.8156 22.2125 13.1915 21.995L13.195 21.993L14.6225 21.1811C14.1853 20.4611 13.9219 19.6031 13.9096 18.6971C13.8746 17.1444 14.545 15.7348 15.6276 14.8051L15.63 14.803C15.7684 14.6855 15.9157 14.5757 16.0701 14.4741C16.8325 13.9562 17.7449 13.6508 18.7227 13.6494C19.5399 13.6315 20.3004 13.8216 20.9649 14.1708V8.88665C20.9649 8.48559 20.8761 8.04266 20.714 7.60012ZM18.7351 14.7494C19.3349 14.7503 19.8902 14.8733 20.3782 15.1091C21.582 15.7044 22.4151 16.9805 22.4487 18.5123L22.4487 18.5144C22.4674 19.2344 22.2813 19.9164 21.9449 20.5038L21.938 20.5161C21.755 20.8557 21.5051 21.1713 21.2263 21.4298L21.2203 21.4355C20.5798 22.0477 19.7379 22.4199 18.8003 22.4492C17.6442 22.4729 16.601 21.9528 15.9099 21.1097C15.8916 21.0739 15.8692 21.0399 15.8431 21.0084C15.7323 20.8753 15.6368 20.7397 15.5614 20.6016C15.5579 20.5953 15.5543 20.589 15.5506 20.5827C15.2066 20.0079 15.0096 19.3245 15.0096 18.5992C15.0096 17.3789 15.5541 16.292 16.4088 15.5932L16.4097 15.5924C16.497 15.5207 16.5872 15.453 16.6802 15.3895C17.2676 15.0048 18.005 14.7667 18.7351 14.7494ZM15.289 22.0675C16.179 23.0062 17.4379 23.5783 18.8261 23.5489L18.8313 23.5488C20.0472 23.5116 21.1457 23.027 21.9773 22.2336C22.3361 21.9002 22.66 21.4931 22.9029 21.0444C23.3327 20.2915 23.5722 19.4141 23.5484 18.4871C23.5178 17.1075 22.9611 15.8593 22.0649 14.9762V8.88665C22.0649 8.00966 21.7633 7.07458 21.3025 6.26925C20.8421 5.4646 20.1919 4.7356 19.4393 4.30616L13.7423 1.05191C13.7419 1.05164 13.7414 1.05137 13.741 1.0511C13.029 0.639636 12.128 0.449997 11.2575 0.449997C10.3869 0.449997 9.48591 0.639636 8.77395 1.0511L3.07563 4.30616C3.07556 4.3062 3.0757 4.30611 3.07563 4.30616C2.32314 4.73561 1.67277 5.46468 1.21241 6.26925C0.751616 7.07458 0.450012 8.00966 0.450012 8.88665V15.1124C0.450012 15.9894 0.751616 16.9245 1.21241 17.7298C1.67277 18.5344 2.32292 19.2633 3.07541 19.6928C3.07534 19.6928 3.07548 19.6928 3.07541 19.6928L8.77256 22.9472C8.77308 22.9475 8.7736 22.9478 8.77412 22.9481C9.48605 23.3595 10.387 23.5491 11.2575 23.5491C12.1278 23.5491 13.0286 23.3595 13.7404 22.9483C13.7411 22.9479 13.7417 22.9475 13.7423 22.9472L15.289 22.0675ZM10.7075 22.418V12.9169L1.79937 7.60432C1.63823 8.04547 1.55001 8.48686 1.55001 8.88665V15.1124C1.55001 15.7534 1.77675 16.5012 2.16717 17.1835C2.55799 17.8666 3.08186 18.43 3.6208 18.7375L9.32341 21.995C9.6993 22.2125 10.1833 22.3579 10.7075 22.418ZM20.7625 17.0781C20.9769 17.2933 20.9762 17.6416 20.761 17.8559L18.5302 20.0779C18.3168 20.2903 17.9723 20.2918 17.7572 20.0811L16.6791 19.0252C16.4621 18.8126 16.4585 18.4644 16.671 18.2474C16.8836 18.0304 17.2318 18.0268 17.4488 18.2393L18.1388 18.9151L19.9847 17.0766C20.1999 16.8622 20.5482 16.8629 20.7625 17.0781Z" fill="#0A0A0A"/>
</g>
<defs>
<clipPath id="clip0_329_7282">
<rect width="24" height="24" fill="white"/>
</clipPath>
</defs>
</svg>
