<svg width="24" height="24" viewBox="0 0 24 24" fill="none" xmlns="http://www.w3.org/2000/svg">
<path d="M19.8035 8.96234C19.1335 8.22234 18.1235 7.79234 16.7235 7.64234V6.88234C16.7235 5.51234 16.1435 4.19234 15.1235 3.27234C14.0935 2.33234 12.7535 1.89234 11.3635 2.02234C8.9735 2.25234 6.9635 4.56234 6.9635 7.06234V7.64234C5.5635 7.79234 4.5535 8.22234 3.8835 8.96234C2.9135 10.0423 2.9435 11.4823 3.0535 12.4823L3.7535 18.0523C3.9635 20.0023 4.7535 22.0023 9.0535 22.0023H14.6335C18.9335 22.0023 19.7235 20.0023 19.9335 18.0623L20.6335 12.4723C20.7435 11.4823 20.7635 10.0423 19.8035 8.96234ZM11.5035 3.41234C12.5035 3.32234 13.4535 3.63234 14.1935 4.30234C14.9235 4.96234 15.3335 5.90234 15.3335 6.88234V7.58234H8.3535V7.06234C8.3535 5.28234 9.8235 3.57234 11.5035 3.41234ZM8.2635 13.1523H8.2535C7.7035 13.1523 7.2535 12.7023 7.2535 12.1523C7.2535 11.6023 7.7035 11.1523 8.2535 11.1523C8.8135 11.1523 9.2635 11.6023 9.2635 12.1523C9.2635 12.7023 8.8135 13.1523 8.2635 13.1523ZM15.2635 13.1523H15.2535C14.7035 13.1523 14.2535 12.7023 14.2535 12.1523C14.2535 11.6023 14.7035 11.1523 15.2535 11.1523C15.8135 11.1523 16.2635 11.6023 16.2635 12.1523C16.2635 12.7023 15.8135 13.1523 15.2635 13.1523Z" fill="#0A0A0A"/>
</svg>
