<svg width="104" height="111" viewBox="0 0 104 111" fill="none" xmlns="http://www.w3.org/2000/svg">
<path d="M50.6895 10.7313C46.8494 1.77963 39.1276 -2.98717 30.4921 2.04651C23.6875 6.01269 21.7064 14.6133 21.702 21.8011C13.4416 20.4712 1.07786 20.6271 0.252493 30.6429C-0.889807 44.5082 22.6785 50.3549 32.6412 47.6042C32.6837 47.5919 32.7184 47.5728 32.7599 47.5594C39.4009 47.7029 42.6621 45.4378 46.715 40.6575C53.2462 32.9528 54.6092 19.8668 50.6895 10.7313Z" fill="#9DB1CB"/>
<path d="M11.9093 80.8813C11.9093 80.8813 12.224 52.9589 30.7147 42.6762C45.886 34.2393 69.666 24.8368 92.1178 43.9938C109.685 58.9816 103.327 79.5637 94.52 90.9005C90.485 96.0956 83.078 100.999 79.884 102.417C67.5057 107.909 46.4885 115.473 32.4282 107.621C19.3813 100.334 15.3553 91.3355 15.3553 91.3355C15.3553 91.3355 3.4888 88.8731 5.29744 87.1339C7.10496 85.3947 11.6394 82.9244 11.9105 80.8824L11.9093 80.8813Z" fill="#F8CD16"/>
<path d="M76.4811 47.3218C75.7912 43.9219 75.4048 40.5882 75.8595 37.121C76.322 33.591 77.7566 30.6621 78.9807 27.3934C79.1599 26.9146 78.5193 26.4761 78.1856 26.9157C74.0923 32.3116 73.753 41.2733 75.9771 47.4407C76.0746 47.712 76.5404 47.6167 76.4799 47.3218H76.4811Z" fill="#8E5E32"/>
<path d="M81.8454 28.8367C82.9384 28.0372 83.2833 26.3081 82.4087 25.2159C81.5307 24.1192 79.9639 23.7951 78.7925 24.6518C77.6995 25.4513 77.3546 27.1805 78.2292 28.2726C79.1038 29.3648 80.6739 29.6934 81.8454 28.8367Z" fill="#8E5E32"/>
<path d="M86.9511 46.4898C88.986 38.5294 92.4991 30.1643 100.437 26.6791C101.027 26.4201 100.66 25.384 100.041 25.5993C95.9652 27.0155 92.8732 30.1374 90.7174 33.8109C88.6568 37.3206 86.3587 42.3196 86.5132 46.4136C86.5222 46.6535 86.8851 46.7522 86.9523 46.4887L86.9511 46.4898Z" fill="#8E5E32"/>
<path d="M102.549 29.4534C103.621 28.8849 104.148 27.3969 103.512 26.3148C102.876 25.2327 101.526 24.7416 100.377 25.3504C99.3056 25.919 98.7781 27.407 99.4142 28.4891C100.05 29.5712 101.4 30.0623 102.549 29.4534Z" fill="#8E5E32"/>
<path d="M50.6472 34.4009C47.1721 35.2778 43.8449 36.4496 40.7126 37.7671C38.8882 48.8404 38.9655 59.8979 41.4102 71.7022C44.3925 86.1013 51.4692 99.508 62.6626 108.673C67.6932 107.318 72.4797 105.548 76.6076 103.827C72.8638 98.7231 69.2342 93.7017 65.58 88.4527C61.0242 81.9075 58.2256 74.5123 56.2501 66.8176C53.6217 56.5798 51.1915 45.3586 50.6483 34.4009H50.6472Z" fill="#8E5E32"/>
<path d="M28.9785 83.8296C23.7128 69.9082 21.3699 55.4463 30.58 42.7595C14.347 51.9108 12.2259 74.6863 11.9527 79.8265C12.0232 80.3613 12.1061 80.8917 12.1901 81.4199C10.5965 82.8597 7.74634 85.2672 6.16504 85.7617C4.97122 86.1362 4.45607 87.955 5.55134 88.759C6.99153 89.8153 8.52803 89.4789 10.2023 89.8277C11.2001 90.0351 12.3021 90.3334 13.347 90.7348C14.1477 91.2518 14.9731 91.6745 15.7144 92.0277C16.9262 94.248 21.5133 101.523 32.4301 107.62C37.6768 110.55 43.8923 111.324 50.2656 110.87C46.5991 107.556 42.2203 105.183 38.9244 101.334C34.5467 96.2193 31.3483 90.0923 28.9785 83.8274V83.8296Z" fill="#8E5E32"/>
<path d="M74.6438 72.8C74.6639 71.9467 74.0626 71.1191 73.3425 70.7098C72.8687 70.4407 72.2819 70.2949 71.7376 70.3409C71.2897 70.379 70.8518 70.4867 70.4632 70.721C69.9996 71.0014 69.6054 71.4656 69.4497 71.9949C69.2862 72.2326 69.1641 72.4984 69.0913 72.7989C68.911 73.5468 69.2302 74.4125 69.8137 74.9036C70.4408 75.4329 71.2247 75.6538 72.0333 75.4621C72.4723 75.3578 72.8665 75.1032 73.2495 74.8722C73.4522 74.75 73.6404 74.63 73.8274 74.4843C74.3537 74.0727 74.6281 73.4717 74.6438 72.8Z" fill="#F16334"/>
<path d="M101.929 67.4735C102.163 66.6527 101.789 65.7007 101.194 65.1232C100.803 64.7442 100.271 64.4538 99.7335 64.3618C99.2911 64.2856 98.8398 64.28 98.4042 64.4089C97.8857 64.5637 97.3873 64.9135 97.1029 65.3867C96.8856 65.5762 96.6997 65.8027 96.5541 66.0752C96.1913 66.7536 96.2842 67.672 96.7243 68.2943C97.1992 68.9649 97.9013 69.3764 98.7323 69.3933C99.1836 69.4022 99.6293 69.2553 100.057 69.1286C100.284 69.0613 100.496 68.9929 100.715 68.8987C101.328 68.633 101.745 68.1194 101.929 67.4735Z" fill="#F16334"/>
<path d="M96.7757 61.1101C95.789 59.4573 93.2827 58.66 91.4998 59.3059C89.5948 59.9955 88.5533 61.9736 88.9375 63.9281C88.989 64.1905 89.3462 64.1479 89.4224 63.9303C89.9734 62.3649 90.9914 60.8063 92.8571 60.9599C94.0677 61.0597 95.0958 61.857 96.3008 61.9231C96.7096 61.9455 96.9772 61.4499 96.7745 61.1101H96.7757Z" fill="#8E5E32"/>
<path d="M80.086 63.2439C79.2371 61.4913 77.3993 59.9909 75.3566 60.158C73.5435 60.3071 71.4717 61.8064 71.8435 63.8012C71.9387 64.3148 72.717 64.5514 73.062 64.1388C73.8448 63.2047 74.3274 62.2067 75.668 62.0217C77.0981 61.8243 78.2773 62.6866 79.0109 63.8517C79.4364 64.5279 80.4309 63.9571 80.0849 63.2428L80.086 63.2439Z" fill="#8E5E32"/>
<path d="M91.4097 72.7626C91.347 72.803 87.9525 75.2598 86.0756 75.3069C84.5469 75.345 83.1146 74.8169 81.68 74.3762C81.4134 74.2226 81.1334 74.0925 80.83 74.0006C80.2902 73.838 79.9856 74.5029 80.3047 74.8886C82.1548 77.1201 84.0295 79.6947 87.3567 79.1475C90.2282 78.6754 91.3638 75.7868 92.141 73.3345C92.2698 72.9297 91.7748 72.5294 91.4097 72.7626Z" fill="#8E5E32"/>
</svg>
