<svg width="38" height="40" viewBox="0 0 38 40" fill="none" xmlns="http://www.w3.org/2000/svg">
<path d="M20.8217 39.3881C19.3948 39.3881 17.9545 38.9383 16.72 38.0049H16.7185L2.82086 27.4961C1.33284 26.373 0.359221 24.7159 0.0804041 22.8339C-0.198413 20.9503 0.253368 19.0744 1.35074 17.5458L11.588 3.28522C12.6853 1.75665 14.2986 0.757477 16.1325 0.472877C17.9754 0.185217 19.7974 0.648847 21.2854 1.77654L35.1801 12.2822C38.2575 14.6095 38.9195 19.0729 36.6532 22.2325L26.413 36.4947C25.0562 38.3874 22.9524 39.3881 20.8217 39.3881ZM7.94247 21.6113L20.6771 31.2372L30.06 18.1686L17.3238 8.54114L7.94247 21.6113Z" fill="#F8CD16"/>
</svg>
