<svg width="24" height="24" viewBox="0 0 24 24" fill="none" xmlns="http://www.w3.org/2000/svg">
<path fill-rule="evenodd" clip-rule="evenodd" d="M20.9 12C20.9 12.4971 20.497 12.9 20 12.9L3.99999 12.9C3.50294 12.9 3.09999 12.4971 3.09999 12C3.09999 11.5029 3.50294 11.1 3.99999 11.1L20 11.1C20.497 11.1 20.9 11.5029 20.9 12ZM14.9 18C14.9 18.4971 14.497 18.9 14 18.9L3.99999 18.9C3.50294 18.9 3.09999 18.4971 3.09999 18C3.09999 17.5029 3.50294 17.1 3.99999 17.1L14 17.1C14.497 17.1 14.9 17.5029 14.9 18ZM10.9 6C10.9 6.49705 10.4971 6.9 9.99999 6.9L3.99999 6.9C3.50294 6.9 3.09999 6.49705 3.09999 6C3.09999 5.50294 3.50294 5.1 3.99999 5.1L9.99999 5.1C10.4971 5.1 10.9 5.50294 10.9 6Z" fill="#0A0A0A"/>
</svg>
