<svg width="20" height="20" viewBox="0 0 20 20" fill="none" xmlns="http://www.w3.org/2000/svg">
<path d="M14.6832 8.95842C14.3248 8.95842 14.0415 8.66675 14.0415 8.31675C14.0415 8.00841 13.7332 7.36675 13.2165 6.80841C12.7082 6.26675 12.1498 5.95008 11.6832 5.95008C11.3248 5.95008 11.0415 5.65841 11.0415 5.30841C11.0415 4.95841 11.3332 4.66675 11.6832 4.66675C12.5165 4.66675 13.3915 5.11675 14.1582 5.92508C14.8748 6.68341 15.3332 7.62508 15.3332 8.30842C15.3332 8.66675 15.0415 8.95842 14.6832 8.95842Z" fill="white"/>
<path d="M17.6915 8.95842C17.3332 8.95842 17.0498 8.66675 17.0498 8.31675C17.0498 5.35841 14.6415 2.95841 11.6915 2.95841C11.3332 2.95841 11.0498 2.66675 11.0498 2.31675C11.0498 1.96675 11.3332 1.66675 11.6832 1.66675C15.3498 1.66675 18.3332 4.65008 18.3332 8.31675C18.3332 8.66675 18.0415 8.95842 17.6915 8.95842Z" fill="white"/>
<path d="M6.4915 14.0084C6.39984 13.9167 6.30817 13.8334 6.2165 13.7417C5.35817 12.8751 4.58317 11.9667 3.8915 11.0167C3.20817 10.0667 2.65817 9.11675 2.25817 8.17508C1.8665 7.22508 1.6665 6.31675 1.6665 5.45008C1.6665 4.88341 1.7665 4.34175 1.9665 3.84175C2.1665 3.33341 2.48317 2.86675 2.92484 2.45008C3.45817 1.92508 4.0415 1.66675 4.65817 1.66675C4.8915 1.66675 5.12484 1.71675 5.33317 1.81675C5.54984 1.91675 5.7415 2.06675 5.8915 2.28341L7.82484 5.00841C7.97484 5.21675 8.08317 5.40841 8.15817 5.59175C8.23317 5.76675 8.27484 5.94175 8.27484 6.10008C8.27484 6.30008 8.2165 6.50008 8.09984 6.69175C7.9915 6.88341 7.83317 7.08341 7.63317 7.28341L6.99984 7.94175C6.90817 8.03341 6.8665 8.14175 6.8665 8.27508C6.8665 8.34175 6.87484 8.40008 6.8915 8.46675C6.9165 8.53341 6.9415 8.58341 6.95817 8.63341C7.10817 8.90841 7.3665 9.26675 7.73317 9.70008C8.10817 10.1334 8.50817 10.5751 8.9415 11.0167C9.02484 11.1001 9.15804 11.2253 9.24137 11.3087L6.4915 14.0084Z" fill="white"/>
<path d="M18.3081 15.2751C18.3081 15.5084 18.2665 15.7501 18.1832 15.9834C18.1581 16.0501 18.1332 16.1167 18.0998 16.1834C17.9582 16.4834 17.7748 16.7667 17.5332 17.0334C17.1248 17.4834 16.6748 17.8084 16.1665 18.0168C16.1582 18.0168 16.1498 18.0251 16.1415 18.0251C15.6498 18.2251 15.1165 18.3334 14.5415 18.3334C13.6915 18.3334 12.7831 18.1334 11.8248 17.7251C10.8665 17.3167 9.90815 16.7667 8.95815 16.0751C8.63315 15.8334 8.31598 15.5937 8.00765 15.3354L10.7257 12.614C10.9591 12.789 11.1665 12.9167 11.3415 13.0084C11.3832 13.0251 11.4332 13.0501 11.4915 13.0751C11.5582 13.1001 11.6248 13.1084 11.6998 13.1084C11.8415 13.1084 11.9498 13.0584 12.0415 12.9667L12.6748 12.3417C12.8832 12.1334 13.0832 11.9751 13.2748 11.8751C13.4665 11.7584 13.6581 11.7001 13.8665 11.7001C14.0248 11.7001 14.1915 11.7334 14.3748 11.8084C14.5582 11.8834 14.7498 11.9917 14.9582 12.1334L17.7165 14.0917C17.9332 14.2417 18.0832 14.4167 18.1748 14.6251C18.2582 14.8334 18.3081 15.0417 18.3081 15.2751Z" fill="white"/>
<path d="M6.4915 14.0084L7.27035 14.6892L8.00765 15.3354L10.7257 12.614L9.24137 11.3087L6.4915 14.0084Z" fill="white"/>
</svg>
