<svg width="24" height="24" viewBox="0 0 24 24" fill="none" xmlns="http://www.w3.org/2000/svg">
<g clip-path="url(#clip0_643_29304)">
<path fill-rule="evenodd" clip-rule="evenodd" d="M12 1.54995C6.23171 1.54995 1.54995 6.23171 1.54995 12C1.54995 17.7682 6.23171 22.45 12 22.45C17.7682 22.45 22.45 17.7682 22.45 12C22.45 11.6962 22.6962 11.45 23 11.45C23.3037 11.45 23.55 11.6962 23.55 12C23.55 18.3757 18.3757 23.55 12 23.55C5.6242 23.55 0.449951 18.3757 0.449951 12C0.449951 5.6242 5.6242 0.449951 12 0.449951C12.3037 0.449951 12.55 0.696195 12.55 0.999951C12.55 1.30371 12.3037 1.54995 12 1.54995ZM18.6 1.54995C18.2962 1.54995 18.05 1.30371 18.05 0.999951C18.05 0.696195 18.2962 0.449951 18.6 0.449951H23C23.3037 0.449951 23.55 0.696195 23.55 0.999951V5.39995C23.55 5.70371 23.3037 5.94995 23 5.94995C22.6962 5.94995 22.45 5.70371 22.45 5.39995V2.32777L17.8889 6.88886C17.6741 7.10365 17.3258 7.10365 17.111 6.88886C16.8963 6.67407 16.8963 6.32583 17.111 6.11104L21.6721 1.54995H18.6ZM12 6.49995C12.3037 6.49995 12.55 6.74619 12.55 7.04995V7.58896H12.9239C14.2625 7.58896 15.311 8.71649 15.311 10.064C15.311 10.3677 15.0647 10.614 14.761 10.614C14.4572 10.614 14.211 10.3677 14.211 10.064C14.211 9.27742 13.6094 8.68896 12.9239 8.68896H12.55V11.6019L13.8454 12.0538C14.212 12.1843 14.598 12.3781 14.8823 12.7422C15.1715 13.1125 15.3 13.5863 15.3 14.167C15.3 15.3789 14.3648 16.4 13.1549 16.4H12.55V16.95C12.55 17.2537 12.3037 17.5 12 17.5C11.6962 17.5 11.45 17.2537 11.45 16.95V16.4H11.087C9.74843 16.4 8.69995 15.2724 8.69995 13.925C8.69995 13.6212 8.9462 13.375 9.24995 13.375C9.55371 13.375 9.79995 13.6212 9.79995 13.925C9.79995 14.7115 10.4015 15.3 11.087 15.3H11.45V12.3832L10.1688 11.9363L10.1655 11.9351C9.8024 11.8059 9.41496 11.6155 9.12952 11.252C8.83881 10.8818 8.71096 10.4067 8.71096 9.82196C8.71096 8.62341 9.64378 7.58896 10.8559 7.58896H11.45V7.04995C11.45 6.74619 11.6962 6.49995 12 6.49995ZM11.45 8.68896H10.8559C10.3081 8.68896 9.81096 9.17251 9.81096 9.82196C9.81096 10.2492 9.90311 10.4561 9.99464 10.5726C10.0913 10.6957 10.248 10.7967 10.5329 10.8983C10.5334 10.8984 10.5339 10.8986 10.5344 10.8988L11.45 11.2182V8.68896ZM12.55 12.7669V15.3H13.1549C13.7051 15.3 14.2 14.825 14.2 14.167C14.2 13.7466 14.1084 13.5384 14.0153 13.4192C13.9176 13.294 13.7595 13.191 13.4781 13.0907C13.4776 13.0905 13.4771 13.0903 13.4765 13.0901L12.55 12.7669Z" fill="white"/>
</g>
<defs>
<clipPath id="clip0_643_29304">
<rect width="24" height="24" fill="white"/>
</clipPath>
</defs>
</svg>
