<svg width="24" height="24" viewBox="0 0 24 24" fill="none" xmlns="http://www.w3.org/2000/svg">
<g clip-path="url(#clip0_329_7268)">
<path fill-rule="evenodd" clip-rule="evenodd" d="M12 1.55C6.23177 1.55 1.55001 6.23175 1.55001 12C1.55001 17.7682 6.23177 22.45 12 22.45C17.7683 22.45 22.45 17.7682 22.45 12C22.45 11.6962 22.6963 11.45 23 11.45C23.3038 11.45 23.55 11.6962 23.55 12C23.55 18.3758 18.3758 23.55 12 23.55C5.62426 23.55 0.450012 18.3758 0.450012 12C0.450012 5.62424 5.62426 0.449997 12 0.449997C12.3038 0.449997 12.55 0.69624 12.55 0.999997C12.55 1.30375 12.3038 1.55 12 1.55ZM18.6 1.55C18.2963 1.55 18.05 1.30375 18.05 0.999997C18.05 0.69624 18.2963 0.449997 18.6 0.449997H23C23.3038 0.449997 23.55 0.69624 23.55 0.999997V5.4C23.55 5.70375 23.3038 5.95 23 5.95C22.6963 5.95 22.45 5.70375 22.45 5.4V2.32781L17.8889 6.88891C17.6741 7.10369 17.3259 7.10369 17.1111 6.88891C16.8963 6.67412 16.8963 6.32588 17.1111 6.11109L21.6722 1.55H18.6ZM12 6.5C12.3038 6.5 12.55 6.74624 12.55 7.05V7.589H12.924C14.2625 7.589 15.311 8.71654 15.311 10.064C15.311 10.3678 15.0648 10.614 14.761 10.614C14.4573 10.614 14.211 10.3678 14.211 10.064C14.211 9.27747 13.6095 8.689 12.924 8.689H12.55V11.6019L13.8455 12.0538C14.212 12.1843 14.5981 12.3782 14.8824 12.7422C15.1715 13.1125 15.3 13.5863 15.3 14.167C15.3 15.379 14.3649 16.4 13.155 16.4H12.55V16.95C12.55 17.2538 12.3038 17.5 12 17.5C11.6963 17.5 11.45 17.2538 11.45 16.95V16.4H11.087C9.74849 16.4 8.70001 15.2725 8.70001 13.925C8.70001 13.6212 8.94626 13.375 9.25001 13.375C9.55377 13.375 9.80001 13.6212 9.80001 13.925C9.80001 14.7115 10.4016 15.3 11.087 15.3H11.45V12.3832L10.1689 11.9363L10.1656 11.9352C9.80246 11.8059 9.41502 11.6155 9.12958 11.2521C8.83887 10.8819 8.71102 10.4068 8.71102 9.822C8.71102 8.62345 9.64384 7.589 10.856 7.589H11.45V7.05C11.45 6.74624 11.6963 6.5 12 6.5ZM11.45 8.689H10.856C10.3082 8.689 9.81102 9.17255 9.81102 9.822C9.81102 10.2492 9.90317 10.4561 9.9947 10.5727C10.0913 10.6957 10.248 10.7967 10.533 10.8983C10.5335 10.8985 10.5339 10.8987 10.5344 10.8988L11.45 11.2182V8.689ZM12.55 12.7669V15.3H13.155C13.7051 15.3 14.2 14.825 14.2 14.167C14.2 13.7467 14.1085 13.5385 14.0154 13.4193C13.9176 13.294 13.7596 13.1911 13.4782 13.0907C13.4777 13.0905 13.4771 13.0903 13.4766 13.0902L12.55 12.7669Z" fill="#0A0A0A"/>
</g>
<defs>
<clipPath id="clip0_329_7268">
<rect width="24" height="24" fill="white"/>
</clipPath>
</defs>
</svg>
