<svg width="40" height="40" viewBox="0 0 40 40" fill="none" xmlns="http://www.w3.org/2000/svg">
<g clip-path="url(#clip0_1014_3901)">
<path fill-rule="evenodd" clip-rule="evenodd" d="M32.7191 33.0371C29.3219 36.5193 24.8049 38.4371 20 38.4371C15.1951 38.4371 10.678 36.5193 7.28083 33.0371C3.88361 29.555 2.01253 24.925 2.01253 20C2.01253 15.075 3.88361 10.445 7.28083 6.96286C10.6787 3.48071 15.1951 1.56286 20 1.56286C24.8049 1.56286 29.3219 3.48071 32.7191 6.96286C36.1164 10.445 37.9874 15.075 37.9874 20C37.9874 24.925 36.1164 29.555 32.7191 33.0371ZM33.7972 5.85786C30.1122 2.08 25.2118 0 20 0C14.7882 0 9.88779 2.08 6.20278 5.85786C2.51706 9.635 0.487793 14.6579 0.487793 20C0.487793 25.3421 2.51706 30.365 6.20278 34.1421C9.88779 37.92 14.7882 40 20 40C25.2118 40 30.1122 37.92 33.7972 34.1421C37.4822 30.365 39.5122 25.3421 39.5122 20C39.5122 14.6579 37.4829 9.635 33.7972 5.85786ZM13.7825 18.4714C15.1303 18.4714 16.2264 17.3479 16.2264 15.9664C16.2264 14.585 15.1303 13.4621 13.7825 13.4621C12.4348 13.4621 11.3386 14.5857 11.3386 15.9664C11.3386 17.3471 12.4348 18.4714 13.7825 18.4714ZM26.2767 18.4714C27.6244 18.4714 28.7206 17.3479 28.7206 15.9664C28.7206 14.585 27.6244 13.4621 26.2767 13.4621C24.9289 13.4621 23.8328 14.5857 23.8328 15.9664C23.8328 17.3471 24.9289 18.4714 26.2767 18.4714ZM28.8599 23.04C28.4592 22.9086 28.0299 23.1343 27.9017 23.545C27.8871 23.5929 26.3255 28.35 20.0299 28.35C17.4007 28.35 15.2801 27.5464 13.7282 25.9621C12.5623 24.7714 12.1603 23.5543 12.1575 23.545C12.0293 23.1343 11.6 22.9079 11.1993 23.04C10.7986 23.1714 10.5776 23.6114 10.7059 24.0221C10.7255 24.0843 11.1958 25.5529 12.5909 27.0057C13.8648 28.3321 16.1889 29.9129 20.0299 29.9129C23.8711 29.9129 26.1951 28.3321 27.469 27.0057C28.8641 25.5529 29.3345 24.0843 29.354 24.0221C29.4822 23.6114 29.2614 23.1714 28.8599 23.04Z" fill="white"/>
</g>
<defs>
<clipPath id="clip0_1014_3901">
<rect width="40" height="40" fill="white"/>
</clipPath>
</defs>
</svg>
