<svg width="69" height="65" viewBox="0 0 69 65" fill="none" xmlns="http://www.w3.org/2000/svg">
<path d="M39.9356 0.616986L13.8307 6.92463C11.1458 7.57312 9.02899 9.53221 8.27828 12.0658L0.978269 36.6849C0.227552 39.2165 0.955707 41.937 2.89198 43.8202L21.6989 62.1316C23.6331 64.0148 26.478 64.7762 29.165 64.1277L55.2699 57.8201C57.9548 57.1716 60.0716 55.2125 60.8223 52.6789L68.1223 28.0598C68.873 25.5282 68.1449 22.8077 66.2086 20.9245L47.4017 2.61307C45.4675 0.729924 42.6226 -0.0315 39.9356 0.616986Z" fill="#9DB1CB"/>
<path d="M38.3418 10.0118L19.9595 14.4538C18.0684 14.9115 16.5792 16.2902 16.05 18.0741L10.9099 35.4079C10.3807 37.1917 10.8955 39.106 12.2575 40.4322L25.4996 53.326C26.8616 54.6522 28.8656 55.1877 30.7567 54.7301L49.139 50.2881C51.0302 49.8304 52.5193 48.4516 53.0485 46.6678L58.1887 29.334C58.7178 27.5502 58.203 25.6359 56.8411 24.3097L43.5989 11.4159C42.2369 10.0897 40.233 9.55416 38.3418 10.0118Z" fill="#F4E6D7"/>
<path d="M25.1242 32.4765C26.8483 32.4765 28.246 31.1495 28.246 29.5125C28.246 27.8756 26.8483 26.5486 25.1242 26.5486C23.4 26.5486 22.0024 27.8756 22.0024 29.5125C22.0024 31.1495 23.4 32.4765 25.1242 32.4765Z" fill="#1D4688"/>
<path d="M41.3856 28.5458C43.1097 28.5458 44.5074 27.2188 44.5074 25.5819C44.5074 23.9449 43.1097 22.6179 41.3856 22.6179C39.6615 22.6179 38.2638 23.9449 38.2638 25.5819C38.2638 27.2188 39.6615 28.5458 41.3856 28.5458Z" fill="#1D4688"/>
<path d="M27.7618 42.3163C29.4859 42.3163 30.8836 40.9893 30.8836 39.3524C30.8836 37.7154 29.4859 36.3884 27.7618 36.3884C26.0376 36.3884 24.6399 37.7154 24.6399 39.3524C24.6399 40.9893 26.0376 42.3163 27.7618 42.3163Z" fill="#1D4688"/>
<path d="M44.0232 38.3861C45.7474 38.3861 47.1451 37.0592 47.1451 35.4222C47.1451 33.7853 45.7474 32.4583 44.0232 32.4583C42.2991 32.4583 40.9014 33.7853 40.9014 35.4222C40.9014 37.0592 42.2991 38.3861 44.0232 38.3861Z" fill="#1D4688"/>
</svg>
