<svg width="43" height="47" viewBox="0 0 43 47" fill="none" xmlns="http://www.w3.org/2000/svg">
<path d="M30.1207 46.3896C28.085 46.3896 26.0792 45.7046 24.3833 44.3685L3.71978 28.1199C0.999778 25.9824 -0.360982 22.6219 0.082651 19.1321C0.526284 15.6407 2.68152 12.7503 5.84674 11.4012L29.88 1.14832C33.0436 -0.200748 36.5581 0.267789 39.2797 2.4069C42.0012 4.54764 43.362 7.90818 42.9168 11.3996L39.5471 37.9043C39.1035 41.3941 36.9482 44.2828 33.783 45.6319C32.5921 46.1408 31.3509 46.3896 30.1207 46.3896ZM18.9638 29.658L29.2963 37.7815C29.8548 38.2242 30.407 38.0885 30.687 37.9689C30.967 37.8493 31.4469 37.5424 31.5397 36.8266L34.9094 10.322C34.9991 9.60623 34.6105 9.18293 34.3714 8.99551C34.1323 8.8081 33.6304 8.53344 32.9823 8.80971L8.94741 19.0626C8.2977 19.3405 8.1341 19.8979 8.09477 20.2049C8.05701 20.5135 8.07434 21.0935 8.63281 21.5313L18.9638 29.658Z" fill="#F16334"/>
</svg>
