<svg width="34" height="25" viewBox="0 0 34 25" fill="none" xmlns="http://www.w3.org/2000/svg">
<rect x="0.5" y="1.11035" width="33" height="23" rx="3.5" fill="white"/>
<rect x="0.5" y="1.11035" width="33" height="23" rx="3.5" stroke="#F9F7F6"/>
<path d="M14 23.6104L33 17.8604V20.6104C33 22.2672 31.6569 23.6104 30 23.6104H14Z" fill="#FD6020"/>
<path fill-rule="evenodd" clip-rule="evenodd" d="M29.3937 9.72119C30.439 9.72119 31.0139 10.2047 31.0139 11.1181C31.0662 11.8165 30.5958 12.4075 29.9686 12.515L31.3797 14.5029H30.2822L29.0801 12.5687H28.9756V14.5029H28.0871V9.72119H29.3937ZM28.9756 11.924H29.2369C29.8118 11.924 30.0731 11.6554 30.0731 11.1718C30.0731 10.742 29.8118 10.4734 29.2369 10.4734H28.9756V11.924ZM25.0034 14.5029H27.5122V13.697H25.8919V12.4075H27.4599V11.6016H25.8919V10.5271H27.5122V9.72119H25.0034V14.5029ZM22.3902 12.9448L21.1881 9.72119H20.2474L22.1812 14.6103H22.6515L24.5853 9.72119H23.6446L22.3902 12.9448ZM11.7805 12.1389C11.7805 13.4821 12.8258 14.6104 14.1324 14.6104C14.5505 14.6104 14.9164 14.5029 15.2822 14.3417V13.2672C15.0209 13.5895 14.655 13.8044 14.2369 13.8044C13.4007 13.8044 12.7212 13.1597 12.7212 12.3001V12.1926C12.669 11.333 13.3484 10.5808 14.1847 10.5271C14.6028 10.5271 15.0209 10.742 15.2822 11.0644V9.98984C14.9686 9.77493 14.5505 9.7212 14.1847 9.7212C12.8258 9.61375 11.7805 10.742 11.7805 12.1389ZM10.1603 11.5479C9.63762 11.333 9.48082 11.2256 9.48082 10.9569C9.53309 10.6346 9.79441 10.3659 10.108 10.4196C10.3693 10.4196 10.6306 10.5808 10.8397 10.7957L11.3101 10.151C10.9442 9.82865 10.4739 9.61375 10.0035 9.61375C9.27176 9.56002 8.64459 10.151 8.59232 10.9032V10.9569C8.59232 11.6016 8.85365 11.9777 9.68988 12.2464C9.89894 12.3001 10.108 12.4075 10.3171 12.515C10.4739 12.6225 10.5784 12.7836 10.5784 12.9985C10.5784 13.3746 10.2648 13.697 9.95121 13.697H9.89894C9.48082 13.697 9.11497 13.4284 8.95818 13.0523L8.38326 13.6433C8.69685 14.2343 9.32403 14.5566 9.95121 14.5566C10.7874 14.6104 11.4669 13.9656 11.5191 13.106V12.9448C11.4669 12.3001 11.2056 11.9777 10.1603 11.5479ZM7.12892 14.5029H8.01742V9.72119H7.12892V14.5029ZM3 9.72121H4.30662H4.56794C5.8223 9.77493 6.81532 10.8495 6.76306 12.1389C6.76306 12.8374 6.44947 13.4821 5.92682 13.9656C5.45644 14.3417 4.88153 14.5566 4.30662 14.5029H3V9.72121ZM4.14983 13.697C4.56794 13.7507 5.03833 13.5895 5.35191 13.3209C5.6655 12.9985 5.8223 12.5687 5.8223 12.0852C5.8223 11.6554 5.6655 11.2255 5.35191 10.9032C5.03833 10.6345 4.56794 10.4734 4.14983 10.5271H3.8885V13.697H4.14983Z" fill="black"/>
<path fill-rule="evenodd" clip-rule="evenodd" d="M17.9477 9.61035C16.6411 9.61035 15.5435 10.6849 15.5435 12.0818C15.5435 13.425 16.5888 14.5532 17.9477 14.607C19.3066 14.6607 20.3519 13.5324 20.4041 12.1355C20.3519 10.7386 19.3066 9.61035 17.9477 9.61035V9.61035Z" fill="#FD6020"/>
</svg>
