<svg width="26" height="26" viewBox="0 0 26 26" fill="none" xmlns="http://www.w3.org/2000/svg">
<path fill-rule="evenodd" clip-rule="evenodd" d="M7.25285 8.37721C5.54315 9.60783 4.1559 11.1094 3.28311 12.1696C2.87764 12.6621 2.87764 13.3381 3.28311 13.8306C4.15589 14.8908 5.54315 16.3923 7.25285 17.623C8.96898 18.8582 10.9407 19.7709 12.9998 19.7709C15.0589 19.7709 17.0307 18.8582 18.7468 17.623C20.4565 16.3923 21.8438 14.8908 22.7166 13.8306C23.122 13.3381 23.122 12.6621 22.7166 12.1696C21.8438 11.1094 20.4565 9.60783 18.7468 8.37721C17.0307 7.14196 15.0589 6.22925 12.9998 6.22925C10.9407 6.22925 8.96898 7.14196 7.25285 8.37721ZM6.30354 7.05833C8.16265 5.72017 10.4659 4.60425 12.9998 4.60425C15.5338 4.60425 17.837 5.72017 19.6961 7.05833C21.5617 8.40112 23.0499 10.0177 23.9711 11.1367C24.8705 12.2292 24.8705 13.771 23.9711 14.8634C23.0499 15.9824 21.5617 17.599 19.6961 18.9418C17.837 20.28 15.5338 21.3959 12.9998 21.3959C10.4659 21.3959 8.16265 20.28 6.30354 18.9418C4.438 17.599 2.94978 15.9824 2.02856 14.8634C1.12915 13.771 1.12915 12.2292 2.02856 11.1367C2.94978 10.0177 4.438 8.40112 6.30354 7.05833ZM12.9998 10.5626C11.6536 10.5626 10.5623 11.6539 10.5623 13.0001C10.5623 14.3463 11.6536 15.4376 12.9998 15.4376C14.346 15.4376 15.4373 14.3463 15.4373 13.0001C15.4373 11.6539 14.346 10.5626 12.9998 10.5626ZM8.93734 13.0001C8.93734 10.7564 10.7562 8.93758 12.9998 8.93758C15.2435 8.93758 17.0623 10.7564 17.0623 13.0001C17.0623 15.2437 15.2435 17.0626 12.9998 17.0626C10.7562 17.0626 8.93734 15.2437 8.93734 13.0001Z" fill="#1D4688"/>
</svg>
