<svg width="24" height="24" viewBox="0 0 24 24" fill="none" xmlns="http://www.w3.org/2000/svg">
<path fill-rule="evenodd" clip-rule="evenodd" d="M6.69509 7.73273C5.11691 8.86869 3.83636 10.2548 3.03071 11.2334C2.65643 11.688 2.65643 12.312 3.03071 12.7666C3.83636 13.7452 5.11691 15.1313 6.69509 16.2673C8.27921 17.4075 10.0993 18.25 12 18.25C13.9007 18.25 15.7208 17.4075 17.3049 16.2673C18.8831 15.1313 20.1636 13.7452 20.9693 12.7666C21.3436 12.312 21.3436 11.688 20.9693 11.2334C20.1636 10.2548 18.8831 8.86869 17.3049 7.73273C15.7208 6.5925 13.9007 5.75 12 5.75C10.0993 5.75 8.27921 6.5925 6.69509 7.73273ZM5.8188 6.51531C7.53491 5.28008 9.66098 4.25 12 4.25C14.339 4.25 16.4651 5.28008 18.1812 6.51531C19.9032 7.75481 21.277 9.24707 22.1273 10.28C22.9576 11.2884 22.9576 12.7116 22.1273 13.72C21.277 14.7529 19.9032 16.2452 18.1812 17.4847C16.4651 18.7199 14.339 19.75 12 19.75C9.66098 19.75 7.53491 18.7199 5.8188 17.4847C4.09677 16.2452 2.72303 14.7529 1.87267 13.72C1.04244 12.7116 1.04245 11.2884 1.87267 10.28C2.72303 9.24707 4.09677 7.75481 5.8188 6.51531ZM12 9.75C10.7574 9.75 9.75 10.7574 9.75 12C9.75 13.2426 10.7574 14.25 12 14.25C13.2426 14.25 14.25 13.2426 14.25 12C14.25 10.7574 13.2426 9.75 12 9.75ZM8.25 12C8.25 9.92893 9.92893 8.25 12 8.25C14.0711 8.25 15.75 9.92893 15.75 12C15.75 14.0711 14.0711 15.75 12 15.75C9.92893 15.75 8.25 14.0711 8.25 12Z" fill="#0A0A0A"/>
</svg>
