<svg width="24" height="24" viewBox="0 0 24 24" fill="none" xmlns="http://www.w3.org/2000/svg">
<path fill-rule="evenodd" clip-rule="evenodd" d="M1.46967 1.46967C1.76256 1.17678 2.23744 1.17678 2.53033 1.46967L22.5303 21.4697C22.8232 21.7626 22.8232 22.2374 22.5303 22.5303C22.2374 22.8232 21.7626 22.8232 21.4697 22.5303L17.1227 18.1834C15.624 19.0832 13.8814 19.75 12 19.75C9.66098 19.75 7.53491 18.7199 5.8188 17.4847C4.09677 16.2452 2.72303 14.7529 1.87267 13.72C1.04244 12.7116 1.04245 11.2884 1.87267 10.28C2.68721 9.29057 3.98392 7.87728 5.60852 6.66918L1.46967 2.53033C1.17678 2.23744 1.17678 1.76256 1.46967 1.46967ZM6.68171 7.74237C5.1107 8.87574 3.83506 10.2563 3.03071 11.2334C2.65643 11.688 2.65643 12.312 3.03071 12.7666C3.83636 13.7452 5.11691 15.1313 6.69509 16.2673C8.27921 17.4075 10.0993 18.25 12 18.25C13.4051 18.25 14.7671 17.7898 16.0253 17.086L6.68171 7.74237ZM12 5.75C11.647 5.75 11.297 5.77898 10.9507 5.83355C10.5415 5.89803 10.1576 5.6186 10.0931 5.20944C10.0286 4.80027 10.308 4.41631 10.7172 4.35184C11.1366 4.28575 11.5647 4.25 12 4.25C14.339 4.25 16.4651 5.28008 18.1812 6.51531C19.9032 7.75481 21.277 9.24707 22.1273 10.28C22.9576 11.2884 22.9576 12.7116 22.1273 13.72C21.7475 14.1814 21.2656 14.7315 20.6973 15.3084C20.4066 15.6035 19.9317 15.607 19.6367 15.3163C19.3416 15.0257 19.338 14.5508 19.6287 14.2557C20.1607 13.7157 20.6127 13.1998 20.9693 12.7666C21.3436 12.312 21.3436 11.688 20.9693 11.2334C20.1636 10.2548 18.8831 8.86869 17.3049 7.73273C15.7208 6.5925 13.9007 5.75 12 5.75ZM8.80589 12.2756C9.20599 12.1683 9.61724 12.4058 9.72444 12.8059C9.81887 13.1583 10.0044 13.4796 10.2624 13.7376C10.5204 13.9956 10.8417 14.1811 11.1941 14.2756C11.5942 14.3828 11.8317 14.794 11.7244 15.1941C11.6172 15.5942 11.206 15.8317 10.8059 15.7244C10.1991 15.5619 9.64589 15.2424 9.20172 14.7983C8.75756 14.3541 8.43813 13.8009 8.27556 13.1941C8.16835 12.794 8.40579 12.3828 8.80589 12.2756Z" fill="#0A0A0A"/>
</svg>
