<svg width="18" height="18" viewBox="0 0 18 18" fill="none" xmlns="http://www.w3.org/2000/svg">
<path d="M8.99999 1.5C4.875 1.5 1.5 4.88102 1.5 9.04518C1.5 12.8102 4.245 15.9352 7.82999 16.5V11.2289H5.92499V9.04518H7.82999V7.38102C7.82999 5.49096 8.94749 4.45181 10.665 4.45181C11.4825 4.45181 12.3375 4.59488 12.3375 4.59488V6.45482H11.3925C10.4625 6.45482 10.17 7.03464 10.17 7.62952V9.04518H12.255L11.9175 11.2289H10.17V16.5C11.9373 16.2198 13.5466 15.3144 14.7074 13.9473C15.8682 12.5803 16.504 10.8416 16.5 9.04518C16.5 4.88102 13.125 1.5 8.99999 1.5Z" fill="white"/>
</svg>
