<svg width="18" height="18" viewBox="0 0 18 18" fill="none" xmlns="http://www.w3.org/2000/svg">
<path d="M8.99996 2.85138C11.0025 2.85138 11.2397 2.85903 12.0306 2.89511C12.7619 2.92849 13.159 3.05064 13.4233 3.15335C13.749 3.27358 14.0437 3.46529 14.2856 3.71439C14.5347 3.95631 14.7264 4.25098 14.8467 4.57674C14.9494 4.84102 15.0716 5.23814 15.1049 5.96939C15.141 6.76026 15.1486 6.99745 15.1486 9.0001C15.1486 11.0028 15.141 11.2399 15.1049 12.0308C15.0715 12.7621 14.9493 13.1592 14.8467 13.4235C14.7219 13.7469 14.5308 14.0407 14.2856 14.2858C14.0405 14.531 13.7467 14.7221 13.4233 14.8469C13.159 14.9496 12.7619 15.0718 12.0306 15.1051C11.2399 15.1412 11.0027 15.1488 8.99996 15.1488C6.99717 15.1488 6.76007 15.1412 5.96926 15.1051C5.23802 15.0717 4.84094 14.9495 4.57663 14.8469C4.25087 14.7266 3.9562 14.5349 3.71428 14.2858C3.46519 14.0439 3.27348 13.7492 3.15325 13.4235C3.05054 13.1592 2.92836 12.7621 2.89501 12.0308C2.85893 11.24 2.85128 11.0028 2.85128 9.0001C2.85128 6.99745 2.85893 6.76032 2.89501 5.96939C2.92839 5.23814 3.05054 4.84105 3.15325 4.57674C3.27349 4.25097 3.46522 3.95628 3.71434 3.71436C3.95626 3.46526 4.25093 3.27355 4.57669 3.15332C4.84097 3.05061 5.23808 2.92843 5.96932 2.89508C6.76019 2.859 6.99732 2.85138 8.99996 2.85138ZM9.00001 1.5C6.96314 1.5 6.70764 1.50863 5.90781 1.54513C5.1095 1.58157 4.56434 1.70834 4.08728 1.89376C3.58685 2.08208 3.13352 2.37729 2.7589 2.75882C2.37729 3.13342 2.08199 3.58676 1.8936 4.08722C1.70834 4.5643 1.58157 5.10947 1.54528 5.90779C1.50863 6.70763 1.5 6.96312 1.5 9.00002C1.5 11.0369 1.50863 11.2924 1.54528 12.0922C1.58172 12.8906 1.70849 13.4357 1.8939 13.9128C2.08222 14.4132 2.37744 14.8666 2.75896 15.2412C3.13358 15.6227 3.58691 15.9179 4.08734 16.1062C4.56442 16.2917 5.10959 16.4184 5.90787 16.4549C6.70782 16.4914 6.96323 16.5 9.00007 16.5C11.0369 16.5 11.2924 16.4914 12.0923 16.4549C12.8906 16.4184 13.4358 16.2917 13.9128 16.1062C14.411 15.9136 14.8635 15.6189 15.2412 15.2412C15.6189 14.8635 15.9136 14.411 16.1062 13.9128C16.2917 13.4357 16.4184 12.8905 16.4549 12.0922C16.4914 11.2923 16.5 11.0369 16.5 9.00002C16.5 6.96315 16.4914 6.70763 16.4549 5.90779C16.4184 5.10947 16.2917 4.5643 16.1062 4.08724C15.9179 3.58681 15.6227 3.13347 15.2412 2.75885C14.8666 2.37725 14.4132 2.08197 13.9127 1.89361C13.4356 1.70834 12.8905 1.58157 12.0922 1.54528C11.2923 1.50863 11.0369 1.5 9.00001 1.5Z" fill="white"/>
<path d="M8.99996 5.14865C8.23823 5.14865 7.49362 5.37453 6.86027 5.79772C6.22692 6.22092 5.73329 6.82242 5.44179 7.52616C5.15029 8.22991 5.07402 9.00429 5.22262 9.75138C5.37123 10.4985 5.73803 11.1847 6.27665 11.7233C6.81527 12.262 7.50151 12.6288 8.2486 12.7774C8.99568 12.926 9.77006 12.8497 10.4738 12.5582C11.1775 12.2667 11.779 11.7731 12.2022 11.1397C12.6254 10.5064 12.8513 9.76174 12.8513 9.00001C12.8513 7.97857 12.4455 6.99896 11.7233 6.27669C11.001 5.55442 10.0214 5.14865 8.99996 5.14865ZM8.99996 11.5C8.50551 11.5 8.02217 11.3534 7.61106 11.0787C7.19994 10.804 6.87952 10.4135 6.69031 9.9567C6.5011 9.49988 6.45159 8.99722 6.54806 8.51227C6.64452 8.02733 6.88263 7.58187 7.23225 7.23225C7.58188 6.88262 8.02733 6.64452 8.51228 6.54806C8.99722 6.4516 9.49988 6.50111 9.95669 6.69033C10.4135 6.87955 10.8039 7.19998 11.0786 7.6111C11.3533 8.02222 11.5 8.50557 11.5 9.00001C11.4999 9.66305 11.2365 10.2989 10.7677 10.7678C10.2989 11.2366 9.66299 11.5 8.99996 11.5Z" fill="white"/>
<path d="M13.0034 5.89648C13.5005 5.89648 13.9034 5.49354 13.9034 4.99649C13.9034 4.49944 13.5005 4.0965 13.0034 4.0965C12.5064 4.0965 12.1035 4.49944 12.1035 4.99649C12.1035 5.49354 12.5064 5.89648 13.0034 5.89648Z" fill="white"/>
</svg>
