<svg width="24" height="24" viewBox="0 0 24 24" fill="none" xmlns="http://www.w3.org/2000/svg">
<path fill-rule="evenodd" clip-rule="evenodd" d="M12 8.5C12 8.22386 12.2985 8 12.6667 8H17.3333C17.7015 8 18 8.22386 18 8.5C18 8.77614 17.7015 9 17.3333 9H12.6667C12.2985 9 12 8.77614 12 8.5Z" fill="#0A0A0A"/>
<path fill-rule="evenodd" clip-rule="evenodd" d="M9.80474 7.17574C10.0651 7.41005 10.0651 7.78995 9.80474 8.02426L7.80474 9.82426C7.54439 10.0586 7.12228 10.0586 6.86193 9.82426L6.19526 9.22426C5.93491 8.98995 5.93491 8.61005 6.19526 8.37574C6.45561 8.14142 6.87772 8.14142 7.13807 8.37574L7.33333 8.55147L8.86193 7.17574C9.12228 6.94142 9.54439 6.94142 9.80474 7.17574Z" fill="#0A0A0A"/>
<path fill-rule="evenodd" clip-rule="evenodd" d="M12 15.5C12 15.2239 12.2985 15 12.6667 15H17.3333C17.7015 15 18 15.2239 18 15.5C18 15.7761 17.7015 16 17.3333 16H12.6667C12.2985 16 12 15.7761 12 15.5Z" fill="#0A0A0A"/>
<path fill-rule="evenodd" clip-rule="evenodd" d="M9.80474 14.1757C10.0651 14.4101 10.0651 14.7899 9.80474 15.0243L7.80474 16.8243C7.54439 17.0586 7.12228 17.0586 6.86193 16.8243L6.19526 16.2243C5.93491 15.99 5.93491 15.6101 6.19526 15.3757C6.45561 15.1414 6.87772 15.1414 7.13807 15.3757L7.33333 15.5515L8.86193 14.1757C9.12228 13.9414 9.54439 13.9414 9.80474 14.1757Z" fill="#0A0A0A"/>
<path fill-rule="evenodd" clip-rule="evenodd" d="M3.71597 3.71597C4.95734 2.47461 6.81491 2 9.2093 2H14.7907C17.1851 2 19.0427 2.47461 20.284 3.71597C21.5254 4.95734 22 6.81491 22 9.2093V14.7907C22 17.1851 21.5254 19.0427 20.284 20.284C19.0427 21.5254 17.1851 22 14.7907 22H9.2093C6.81491 22 4.95734 21.5254 3.71597 20.284C2.47461 19.0427 2 17.1851 2 14.7907V9.2093C2 6.81491 2.47461 4.95734 3.71597 3.71597ZM4.70263 4.70263C3.85098 5.55429 3.39535 6.95253 3.39535 9.2093V14.7907C3.39535 17.0475 3.85098 18.4457 4.70263 19.2974C5.55429 20.149 6.95253 20.6047 9.2093 20.6047H14.7907C17.0475 20.6047 18.4457 20.149 19.2974 19.2974C20.149 18.4457 20.6047 17.0475 20.6047 14.7907V9.2093C20.6047 6.95253 20.149 5.55429 19.2974 4.70263C18.4457 3.85098 17.0475 3.39535 14.7907 3.39535H9.2093C6.95253 3.39535 5.55429 3.85098 4.70263 4.70263Z" fill="#0A0A0A"/>
</svg>
