<svg width="92" height="70" viewBox="0 0 92 70" fill="none" xmlns="http://www.w3.org/2000/svg">
<g clip-path="url(#clip0_6_1683)">
<path d="M14.2184 11.1918C21.7432 8.1493 22.3657 10.1808 26.8553 4.75357C30.6428 0.175237 44.3399 -3.8306 54.4643 6.47052C61.3356 13.4614 60.3454 3.51664 76.2538 3.51719C81.1729 3.51719 86.6943 3.1957 89.5421 9.75731C94.8436 21.9721 90.3027 34.5348 87.7109 41.9327C86.2667 46.0547 89.5327 52.7695 87.4059 56.1602C84.9585 60.0616 82.4598 60.3619 75.0126 58.8392C70.3999 57.8959 57.2078 57.4225 47.7514 61.7136C42.9504 63.8925 21.6489 72.9982 8.97618 62.6784C1.88364 56.9027 0.985773 47.3744 4.6693 43.9533C8.35283 40.5322 11.6634 35.7603 8.97618 30.759C5.58048 24.4401 7.95686 13.7233 14.2178 11.1918H14.2184Z" fill="#F4E6D7"/>
<path d="M26.037 6.00221C23.7425 2.61456 19.2348 1.75372 15.9071 4.11755C13.6241 5.73922 13.0601 8.87224 13.4921 11.3104C13.89 13.5567 15.6761 15.0973 16.3474 15.6303C17.5869 16.614 19.1333 17.6843 20.5475 18.7073C22.7556 20.3047 25.0191 21.8188 25.0188 23.5622C25.0188 24.9326 24.4032 26.7457 22.6685 27.4346C21.0663 28.0709 19.1142 27.8283 17.4166 26.5774C15.3905 25.0847 14.9227 22.6774 14.7089 20.1738C14.6229 19.165 12.9389 18.9636 12.1212 19.3631C11.1304 19.847 11.139 20.8727 11.2946 21.8592C11.8802 25.5717 13.4608 30.0403 17.972 31.2374C21.7249 32.2333 25.5207 31.4664 27.4898 27.9712C29.4122 24.5585 29.1086 20.5242 25.8748 18.2395C22.4869 15.8459 21.7546 15.2525 18.8389 12.9845C16.6316 11.2675 16.4478 9.25975 17.8065 7.65508C19.8357 5.25865 22.3909 7.4687 23.5087 8.4017C25.3396 9.92976 27.3628 7.9593 26.037 6.00221Z" fill="#F49397"/>
<path d="M69.5342 3.82809C65.991 2.82796 63.5897 4.29 62.343 7.4765C60.9776 10.9664 60.8273 17.5996 61.8089 27.8639C62.2786 32.7766 66.7549 32.8 66.0098 27.3073C65.6336 24.5334 65.4103 22.4301 65.2883 20.68C66.1438 20.3916 67.675 20.0868 69.3207 20.783C70.6736 21.3553 71.9552 20.7474 72.24 19.7815C72.6465 18.403 71.1372 16.7608 66.5439 16.8129C66.0842 16.8182 65.6219 16.8502 65.1638 16.9118C65.1738 15.4163 65.252 14.03 65.3335 12.3526C65.6186 6.48026 70.1989 6.70146 70.0092 11.2795C69.8392 15.3773 73.1895 14.8045 73.5693 11.7526C74.0041 8.25738 73.4443 4.93159 69.5345 3.82809H69.5342Z" fill="#F16334"/>
<path d="M85.6301 24.0857C85.6026 22.2303 85.2846 20.235 85.0325 18.6666C84.819 17.3363 83.7747 16.3256 82.3744 16.7076C81.2264 17.0207 80.9267 18.2423 81.164 19.5299C81.471 21.1959 82.9678 27.828 79.5502 27.828C76.0139 27.828 76.8949 20.5379 77.0108 19.2079C77.3119 15.7517 73.6938 16.096 73.2726 18.9079C72.7635 22.3075 72.5009 31.1961 78.8381 31.4711C80.2165 31.531 81.3681 31.2599 82.3148 30.7657C82.5042 35.1086 81.9668 39.373 78.1222 42.425C75.608 44.4208 71.4239 44.7573 68.9175 43.5655C66.0254 42.1904 63.9523 39.0086 63.2109 37.4134C62.4383 35.7508 62.1533 34.0038 60.291 34.5164C58.942 34.8877 59.0504 36.5618 59.3185 37.604C61.5496 46.2834 71.7758 50.8754 78.9618 46.3202C82.0547 44.3595 84.024 41.9915 85.3891 37.7288C86.7667 33.4268 85.8982 28.5289 85.6304 24.0854L85.6301 24.0857Z" fill="#F49397"/>
<path d="M43.7118 53.2707C41.7181 55.369 38.2372 54.4667 36.8882 53.2587C36.5286 52.9367 36.281 52.5129 36.1304 52.0402C37.9885 52.8186 39.947 52.9487 41.9554 52.5793C43.9064 52.2204 46.4226 50.9484 46.3508 48.6751C46.2986 47.0233 44.75 45.3877 43.0932 44.5771C41.1948 43.648 38.9793 43.5936 37.0696 44.5188C33.2854 46.3522 31.861 51.7192 34.4317 54.8681C37.1109 58.1502 43.889 58.4697 46.2878 54.5074C47.2242 52.9604 45.545 51.3409 43.7115 53.2704L43.7118 53.2707ZM37.7071 47.4287C38.4985 46.9183 39.5949 46.7194 40.5313 46.767C41.2392 46.803 43.4744 47.2379 43.5266 49.2557C43.5377 49.6822 41.2594 50.1834 40.6738 50.2424C39.4479 50.3659 37.9974 50.2895 36.8927 49.7059C36.6938 49.6009 36.4606 49.4727 36.2349 49.3568C36.5192 48.5776 37.0152 47.875 37.7071 47.4287Z" fill="#8E5E32"/>
<path d="M58.3331 53.2707C56.3393 55.369 52.8585 54.4667 51.5095 53.2587C51.1498 52.9367 50.9022 52.5129 50.7517 52.0402C52.6098 52.8186 54.5683 52.9487 56.5767 52.5793C58.5277 52.2204 61.0438 50.9484 60.972 48.6751C60.9199 47.0233 59.3712 45.3877 57.7144 44.5771C55.8161 43.648 53.6005 43.5936 51.6908 44.5188C47.9067 46.3522 46.4822 51.7192 49.053 54.8681C51.7322 58.1502 58.5102 58.4697 60.9091 54.5074C61.8455 52.9604 60.1662 51.3409 58.3328 53.2704L58.3331 53.2707ZM52.3283 47.4287C53.1197 46.9183 54.2161 46.7194 55.1525 46.767C55.8605 46.803 58.0957 47.2379 58.1478 49.2557C58.1589 49.6822 55.8807 50.1834 55.2951 50.2424C54.0692 50.3659 52.6187 50.2895 51.5139 49.7059C51.3151 49.6009 51.0819 49.4727 50.8562 49.3568C51.1404 48.5776 51.6365 47.875 52.3283 47.4287Z" fill="#8E5E32"/>
<path d="M71.4148 60.8188C68.8579 60.8188 66.7777 58.7288 66.7777 56.1597C66.7777 53.5905 68.8579 51.5008 71.4148 51.5008C73.9717 51.5008 76.0522 53.5908 76.0522 56.1597C76.0522 58.7286 73.972 60.8188 71.4148 60.8188ZM71.4148 54.0764C70.2715 54.0764 69.3409 55.0111 69.3409 56.16C69.3409 57.3089 70.2712 58.2438 71.4148 58.2438C72.5583 58.2438 73.4889 57.3091 73.4889 56.16C73.4889 55.0108 72.5586 54.0764 71.4148 54.0764Z" fill="#9DB1CB"/>
<path d="M13.6438 37.4084C12.7393 37.4084 12.0034 36.669 12.0034 35.76C12.0034 34.851 12.7393 34.1119 13.6438 34.1119C14.5483 34.1119 15.2843 34.8512 15.2843 35.76C15.2843 36.6688 14.5483 37.4084 13.6438 37.4084ZM13.6438 34.9705C13.2104 34.9705 12.8577 35.3248 12.8577 35.7603C12.8577 36.1957 13.2101 36.5504 13.6438 36.5504C14.0775 36.5504 14.4299 36.196 14.4299 35.7603C14.4299 35.3246 14.0772 34.9705 13.6438 34.9705Z" fill="#1D4688"/>
<path d="M71.8185 41.9488C71.5531 41.9488 71.2853 41.8669 71.0557 41.697H71.0554L68.4708 39.7836C68.194 39.5792 68.013 39.2775 67.9611 38.9348C67.9093 38.5918 67.9933 38.2503 68.1974 37.972L70.1012 35.3755C70.3053 35.0972 70.6054 34.9153 70.9464 34.8635C71.2892 34.8111 71.628 34.8955 71.9048 35.1008L74.4888 37.0136C75.0611 37.4374 75.1843 38.25 74.7628 38.8253L72.8584 41.422C72.606 41.7666 72.2148 41.9488 71.8185 41.9488ZM69.4233 38.7122L71.7916 40.4648L73.5366 38.0854L71.168 36.3325L69.4233 38.7122Z" fill="#F8CD16"/>
<path d="M81.5631 13.723C81.2042 13.723 80.8507 13.6049 80.5518 13.3745L76.9096 10.5727C76.4301 10.2042 76.1903 9.6247 76.2685 9.02295C76.3467 8.42092 76.7266 7.92252 77.2845 7.6899L81.5206 5.92197C82.0783 5.68935 82.6977 5.77014 83.1774 6.13899C83.6572 6.50812 83.897 7.08759 83.8185 7.68962L83.2246 12.2599C83.1464 12.8616 82.7665 13.3597 82.2086 13.5924C81.9987 13.6801 81.7799 13.723 81.5631 13.723ZM79.5965 10.838L81.4178 12.2387C81.5162 12.315 81.6135 12.2916 81.6629 12.271C81.7122 12.2504 81.7968 12.1975 81.8132 12.0741L82.4071 7.5038C82.4229 7.38039 82.3544 7.3074 82.3123 7.27508C82.2701 7.24276 82.1817 7.1954 82.0674 7.24304L77.831 9.01097C77.7165 9.05889 77.6876 9.155 77.6807 9.20793C77.6741 9.26114 77.6771 9.36116 77.7755 9.43665L79.5965 10.838Z" fill="#1D4688"/>
<path d="M64.6215 52.6879C65.2317 52.6879 65.7265 52.1909 65.7265 51.5777C65.7265 50.9646 65.2317 50.4676 64.6215 50.4676C64.0112 50.4676 63.5164 50.9646 63.5164 51.5777C63.5164 52.1909 64.0112 52.6879 64.6215 52.6879Z" fill="#1D4688"/>
<path d="M49.1528 44.7359C49.1888 44.8027 49.2435 44.8518 49.3042 44.891C49.8898 44.2102 50.6055 43.6385 51.4352 43.2365C52.8591 42.5467 54.4529 42.4018 55.9586 42.7579C55.8962 41.3786 55.8707 40.2581 55.8602 39.5608C55.8549 39.2053 55.455 39.0061 55.1678 39.2137C54.7535 39.5129 54.2494 39.9388 53.9496 40.4127C53.8049 40.6414 53.4805 40.6671 53.2833 40.4821C52.5343 39.7795 51.9653 39.3271 51.6002 39.0593C51.3725 38.8925 51.0525 38.9822 50.9438 39.2432C50.7691 39.6622 50.5154 40.3453 50.2364 41.336C50.163 41.5967 49.8724 41.7435 49.6306 41.6232C49.13 41.3738 48.479 41.2716 47.9704 41.2309C47.6177 41.2028 47.3781 41.5811 47.5567 41.8881C47.913 42.5005 48.4809 43.4942 49.1531 44.7364L49.1528 44.7359Z" fill="#F16334"/>
<path d="M30.9905 46.9994C28.8291 43.7279 24.8247 43.1209 21.7171 44.7414C21.7096 41.7237 22.1192 38.2837 22.4977 35.4864C22.6438 34.4063 22.082 33.0931 20.9047 33.0407C19.9308 32.9975 19.0205 33.7943 18.8754 34.8649C18.1636 40.1274 17.6251 45.3666 18.4822 50.6132C18.8264 52.7197 19.1949 55.9772 21.0461 56.7642C23.075 57.6267 25.0427 57.5666 27.1456 57.0147C31.0973 55.9775 33.4521 50.7255 30.9905 46.9994ZM25.3893 54.2959C25.0856 54.3514 22.8734 54.5344 22.4938 52.7222C22.4869 52.6893 22.1622 50.7511 21.9237 48.3051C23.3803 47.334 25.8374 46.4536 27.6204 47.8577C28.9375 48.8949 29.7563 53.4972 25.3893 54.2959Z" fill="#8E5E32"/>
<path d="M51.7324 64.9503C51.8744 64.7486 52.0577 64.594 52.2792 64.4873C52.5039 64.3803 52.7667 64.3446 53.0654 64.3861C53.1483 64.3951 53.2104 64.3772 53.2456 64.3296C53.2811 64.2819 53.3108 64.2229 53.3343 64.1516C53.3579 64.0861 53.3876 64.024 53.4258 63.9616C53.4644 63.8992 53.5235 63.8518 53.6033 63.8189C53.7156 63.7836 53.834 63.7894 53.9549 63.8309C54.0761 63.8721 54.159 63.9259 54.2064 63.9942C54.2358 64.0535 54.2239 64.1098 54.1621 64.1663C54.103 64.2198 54.0262 64.2761 53.9347 64.3296C53.8343 64.3892 53.7544 64.4485 53.6951 64.5079C53.633 64.5703 53.633 64.6324 53.6893 64.6948C53.8606 64.8762 53.976 65.0957 54.0381 65.3512C54.1002 65.6094 54.1002 65.8707 54.0351 66.1318C53.9702 66.3962 53.8312 66.6246 53.6213 66.8205C53.6036 66.8352 53.5889 66.8469 53.5739 66.862C53.491 66.9272 53.4319 66.9923 53.4026 67.0547C53.3729 67.1172 53.3937 67.2035 53.4616 67.3133C53.4674 67.3191 53.4705 67.328 53.4763 67.3339C53.5357 67.42 53.5944 67.527 53.6566 67.6543C53.7187 67.7819 53.7569 67.9334 53.7777 68.1145C53.7924 68.3371 53.7422 68.5335 53.6238 68.6934C53.5088 68.8569 53.3521 68.9843 53.1572 69.0734C52.9619 69.1626 52.7554 69.2099 52.5363 69.2191C52.2615 69.2219 52.043 69.1595 51.8833 69.0319C51.7208 68.9046 51.629 68.7441 51.6027 68.5511C51.5791 68.3583 51.6321 68.1621 51.7652 67.9663C51.8983 67.7704 52.1198 67.6069 52.4329 67.4735C52.5898 67.4111 52.6844 67.352 52.7138 67.2924C52.7462 67.233 52.6633 67.1826 52.4684 67.1439C52.2024 67.0904 51.9839 66.9834 51.8181 66.8235C51.6529 66.66 51.5375 66.4731 51.4754 66.2594C51.4102 66.0426 51.4013 65.8317 51.446 65.6208C51.4962 65.3743 51.5938 65.1523 51.7324 64.9503ZM52.4861 65.2829C52.3769 65.3868 52.297 65.5114 52.2435 65.6571C52.1902 65.8056 52.1844 65.951 52.2288 66.0964C52.2701 66.2421 52.3827 66.3638 52.5629 66.4588C52.6957 66.5212 52.8172 66.5151 52.9295 66.441C53.0446 66.3697 53.1361 66.2599 53.2071 66.1173C53.2781 65.9716 53.3194 65.8203 53.3252 65.666C53.3341 65.5086 53.3016 65.3779 53.2218 65.2712C53.1449 65.1642 53.0152 65.1108 52.8319 65.1166C52.7079 65.1255 52.5923 65.1821 52.4861 65.2829ZM52.4595 68.6438C52.5571 68.6586 52.6605 68.6408 52.7725 68.5873C52.8849 68.5307 52.9705 68.4597 53.0299 68.3647C53.092 68.2725 53.092 68.1775 53.0357 68.0766C52.9852 68.0114 52.8998 67.9905 52.7814 68.0114C52.6605 68.032 52.551 68.0825 52.4476 68.1627C52.3469 68.2429 52.2967 68.3379 52.2967 68.4477C52.3084 68.5636 52.3647 68.6291 52.4592 68.6438H52.4595Z" fill="#8E5E32"/>
<path d="M55.7576 64.3652C55.9289 64.3742 56.1064 64.4218 56.2897 64.5079C56.4758 64.594 56.6058 64.7157 56.6884 64.8731C56.7178 64.9472 56.7267 65.0216 56.709 65.0985C56.6884 65.1759 56.6557 65.2442 56.6028 65.3035C56.5465 65.3629 56.4846 65.4013 56.4167 65.4219C56.3515 65.4428 56.2808 65.4281 56.2037 65.3835C56.1685 65.3598 56.1358 65.3358 56.1092 65.3152C56.074 65.2857 56.0385 65.2617 56.003 65.2381C55.9647 65.2144 55.9201 65.1966 55.8641 65.1784C55.5657 65.1043 55.3766 65.2141 55.2937 65.5141C55.2612 65.6835 55.2463 65.8557 55.2496 66.0309C55.2496 66.1555 55.2524 66.2772 55.2582 66.402C55.2612 66.4463 55.2612 66.4912 55.2643 66.5355C55.267 66.6037 55.2671 66.6689 55.2671 66.7372C55.2671 66.7817 55.2612 66.8294 55.2524 66.8737L55.2435 66.9004C55.2083 66.9982 55.1431 67.0637 55.0485 67.0932C54.957 67.123 54.8625 67.1258 54.7679 67.1052C54.6498 67.0756 54.5788 67.0249 54.5522 66.9536C54.5259 66.8792 54.5139 66.7962 54.517 66.6982C54.5139 66.6686 54.5139 66.6388 54.5139 66.6062C54.4962 66.3418 54.4904 66.0747 54.4962 65.8075C54.4992 65.3737 54.5938 65.0266 54.7857 64.7625C54.9748 64.4981 55.3 64.3677 55.7581 64.3647L55.7576 64.3652Z" fill="#8E5E32"/>
<path d="M57.1881 65.0573C57.2915 64.8464 57.4366 64.6773 57.6226 64.5494C57.8059 64.4218 58.0333 64.3535 58.2992 64.3505C58.533 64.3535 58.7249 64.407 58.8785 64.5048C59.0321 64.6029 59.1475 64.7305 59.2301 64.8879C59.3099 65.0483 59.3629 65.2174 59.3809 65.3957C59.4372 65.939 59.3457 66.3638 59.112 66.6664C58.8785 66.9723 58.5535 67.1238 58.1398 67.1177C57.9002 67.106 57.6964 67.0316 57.525 66.8893C57.3534 66.7497 57.2236 66.5747 57.1349 66.3697C57.0461 66.1619 57.0079 65.951 57.0168 65.7401C57.0287 65.4938 57.0877 65.2648 57.1881 65.0573ZM57.8647 65.3899C57.7732 65.5384 57.7408 65.7195 57.7732 65.9331C57.7968 66.0666 57.8619 66.1855 57.9654 66.2925C58.0716 66.3992 58.1958 66.441 58.3436 66.414C58.5003 66.3725 58.6095 66.2864 58.6774 66.1557C58.7457 66.0251 58.7781 65.8824 58.772 65.734C58.7631 65.5233 58.7071 65.3598 58.6037 65.2442C58.5003 65.1286 58.3641 65.0868 58.193 65.1224C58.066 65.1523 57.9534 65.2411 57.8647 65.3899Z" fill="#8E5E32"/>
<path d="M60.8054 67.1174C60.4241 67.1294 60.1582 66.9305 60.0104 66.5238C59.8626 66.1173 59.8213 65.4997 59.8864 64.6711C59.9011 64.5525 59.9663 64.4722 60.0814 64.4277C60.1937 64.38 60.3087 64.3742 60.4241 64.4098C60.5394 64.4424 60.6104 64.5196 60.6368 64.6386C60.6429 64.7216 60.6398 64.867 60.6282 65.072C60.6163 65.2411 60.6104 65.4164 60.6074 65.6036C60.6043 65.7905 60.6132 65.9568 60.6398 66.1023C60.6723 66.2566 60.7197 66.3547 60.7849 66.3962C60.847 66.4374 60.9118 66.4346 60.974 66.3873C61.0361 66.3399 61.0771 66.2538 61.1037 66.1346C61.1273 65.9802 61.1362 65.829 61.1304 65.6774V65.4846C61.142 65.3389 61.2041 65.2409 61.3164 65.1907C61.4257 65.14 61.5349 65.14 61.6445 65.1907C61.754 65.2384 61.813 65.3361 61.8219 65.4874C61.8219 65.544 61.8219 65.6033 61.8189 65.6596C61.8103 65.8142 61.8161 65.9685 61.8424 66.1287C61.8691 66.2474 61.9165 66.3246 61.9875 66.3636C62.0554 66.402 62.1264 66.399 62.1971 66.3574C62.2681 66.3162 62.3213 66.2299 62.351 66.105C62.3776 65.9596 62.3893 65.7905 62.3804 65.6005C62.3746 65.4075 62.3626 65.2264 62.3452 65.0573C62.3244 64.8522 62.3185 64.7096 62.3274 64.6266C62.351 64.5079 62.422 64.4307 62.5371 64.4012C62.6524 64.3686 62.7644 64.3772 62.877 64.4246C62.9896 64.472 63.0514 64.5522 63.0692 64.6711C63.1255 65.4966 63.0808 66.1142 62.9363 66.521C62.7944 66.9274 62.5285 67.1266 62.1472 67.1174C61.8516 67.1057 61.627 67.0138 61.4764 66.8414C61.3286 67.0138 61.104 67.1057 60.8056 67.1174H60.8054Z" fill="#8E5E32"/>
<path d="M65.8207 65.2383C65.803 65.3333 65.8327 65.4016 65.9095 65.449C65.9863 65.4997 66.0692 65.535 66.1576 65.5618C66.1665 65.5646 66.1754 65.5676 66.1843 65.5707C66.1901 65.5707 66.1959 65.5735 66.202 65.5766C66.344 65.6208 66.4796 65.6746 66.6124 65.737C66.7455 65.7994 66.852 65.8797 66.9349 65.9805C67.0147 66.0814 67.05 66.2151 67.038 66.3783C67.0264 66.5029 66.979 66.6188 66.9024 66.7257C66.8226 66.8296 66.728 66.9157 66.6127 66.9812C66.486 67.0436 66.3498 67.0848 66.2051 67.1027C66.0603 67.1205 65.9156 67.1236 65.7736 67.1146C65.6702 67.1088 65.5429 67.0879 65.3954 67.0461C65.2476 67.0077 65.1264 66.9483 65.026 66.865C64.9431 66.782 64.9107 66.6839 64.9284 66.5711C64.9492 66.4586 65.0052 66.3753 65.097 66.3159C65.1916 66.2594 65.3039 66.2714 65.4397 66.3513C65.5196 66.402 65.623 66.4405 65.75 66.47C65.877 66.4967 65.9954 66.5026 66.1016 66.4848C66.2112 66.47 66.2733 66.4193 66.2938 66.3363C66.2996 66.2708 66.2644 66.2207 66.1873 66.1789C66.1105 66.1404 66.0101 66.1017 65.8889 66.066C65.7561 66.0276 65.62 65.9741 65.4844 65.9117C65.3485 65.849 65.2359 65.7601 65.1502 65.6442C65.0676 65.5286 65.0352 65.3712 65.0526 65.1754C65.0881 64.9347 65.1918 64.7505 65.3629 64.626C65.534 64.5015 65.7384 64.424 65.9749 64.3976C66.2114 64.368 66.4477 64.3797 66.6781 64.4329C66.8495 64.4806 66.9501 64.5636 66.9737 64.6856C66.9973 64.8071 66.9707 64.9141 66.8908 65.0121C66.814 65.1102 66.7106 65.1456 66.5777 65.125C66.5009 65.1043 66.4091 65.0893 66.2999 65.0743C66.1906 65.0626 66.0903 65.0656 65.9985 65.0862C65.9039 65.1069 65.8479 65.1576 65.8213 65.2378L65.8207 65.2383Z" fill="#8E5E32"/>
<path d="M70.2241 65.2737C70.1237 65.2202 70.0231 65.2144 69.9199 65.2562C69.8165 65.3005 69.7425 65.4074 69.7011 65.5799C69.6806 65.6897 69.6717 65.8053 69.6748 65.9273C69.6748 66.0488 69.6806 66.1708 69.6895 66.2925C69.6984 66.417 69.7011 66.5302 69.7011 66.6341C69.7011 66.7408 69.6895 66.8269 69.6659 66.8982C69.6218 67.0079 69.542 67.0765 69.4324 67.1029C69.3201 67.1325 69.2167 67.1208 69.1191 67.0703C69.0245 67.0199 68.9744 66.9277 68.9713 66.8001C68.9713 66.7647 68.9744 66.7319 68.9744 66.6965C68.983 66.5004 68.986 66.3017 68.9802 66.0997C68.9771 65.8978 68.9536 65.7019 68.9122 65.5091C68.8826 65.3932 68.8177 65.3102 68.7259 65.2626C68.6314 65.218 68.5368 65.2211 68.4395 65.2715C68.3419 65.3219 68.2709 65.4347 68.2326 65.6069C68.1913 65.8504 68.1791 66.0967 68.1913 66.3463C68.2002 66.5717 68.1882 66.7469 68.1588 66.872C68.1175 66.9818 68.0438 67.0531 67.9431 67.0795C67.84 67.1063 67.7424 67.0943 67.6508 67.0469C67.5591 66.9965 67.5028 66.9135 67.4881 66.7976C67.4379 66.1917 67.444 65.6991 67.5058 65.3219C67.5621 64.9951 67.6861 64.7578 67.8752 64.6034C68.0615 64.4491 68.3008 64.375 68.5964 64.3839C68.9125 64.3987 69.1518 64.4906 69.3085 64.6628C69.4948 64.4641 69.7638 64.3719 70.1154 64.3839C70.3666 64.3956 70.5677 64.4522 70.7124 64.553C70.8574 64.6511 70.9636 64.7817 71.0285 64.9419C71.0937 65.1024 71.132 65.2776 71.1436 65.4704C71.1644 65.8387 71.1672 66.1981 71.1525 66.5455C71.1497 66.6494 71.1497 66.7444 71.1467 66.8333C71.1378 66.9492 71.0787 67.0294 70.9664 67.074C70.8572 67.1183 70.7479 67.1216 70.6412 67.0829C70.5319 67.0444 70.4756 66.9583 70.4698 66.8246C70.4756 66.6909 70.4787 66.4978 70.4756 66.2485C70.4698 66.002 70.452 65.7646 70.4135 65.5389C70.3869 65.4172 70.322 65.3311 70.2244 65.2746L70.2241 65.2737Z" fill="#8E5E32"/>
<path d="M73.927 65.9565C73.927 66.1198 73.927 66.2803 73.9301 66.4374C73.9301 66.5146 73.9329 66.592 73.9417 66.663C73.9595 66.8057 73.9537 66.9213 73.924 67.0046C73.8918 67.0907 73.7851 67.1261 73.6051 67.1171C73.4601 67.0996 73.3627 67.052 73.3184 66.9776C73.2743 66.9004 73.2474 66.826 73.2416 66.7519C73.2357 66.7135 73.2269 66.6837 73.218 66.66C73.2091 66.6394 73.1914 66.6305 73.1675 66.6363C73.1437 66.6422 73.1054 66.6658 73.0583 66.7107C72.9285 66.8204 72.7924 66.9096 72.6537 66.9748C72.5145 67.0433 72.3639 67.0611 72.2015 67.0372C71.9768 66.9896 71.8174 66.8739 71.7256 66.6929C71.6341 66.5118 71.59 66.307 71.5928 66.0752C71.5986 65.8434 71.6341 65.6328 71.6993 65.437C71.7966 65.1932 71.9358 64.9857 72.1161 64.8104C72.2963 64.6321 72.509 64.5107 72.7544 64.4363C72.9998 64.365 73.2687 64.3619 73.5582 64.4304C73.6822 64.4658 73.7737 64.5343 73.8272 64.6352C73.8835 64.7333 73.9129 64.8489 73.9187 64.9767C73.9245 65.2913 73.9276 65.6181 73.9276 65.9565H73.927ZM72.6562 65.2291C72.5439 65.3211 72.4555 65.4428 72.3961 65.5944C72.3371 65.7459 72.3104 65.8883 72.3104 66.0248C72.3104 66.1613 72.3429 66.2566 72.408 66.3098C72.5026 66.3636 72.6177 66.3396 72.7538 66.2415C72.8897 66.1407 72.9962 66.0039 73.076 65.832C73.1412 65.6746 73.1706 65.5261 73.1706 65.3865C73.1706 65.247 73.1381 65.167 73.073 65.14C72.9105 65.1074 72.7718 65.1341 72.6562 65.2291Z" fill="#8E5E32"/>
<path d="M75.6532 64.3652C75.8245 64.3742 76.002 64.4218 76.1853 64.5079C76.3714 64.594 76.5011 64.7157 76.584 64.8731C76.6134 64.9472 76.6223 65.0216 76.6046 65.0985C76.584 65.1759 76.5513 65.2442 76.4984 65.3035C76.4421 65.3629 76.3802 65.4013 76.312 65.4219C76.2471 65.4428 76.1764 65.4281 76.0996 65.3835C76.0641 65.3598 76.0314 65.3358 76.0051 65.3152C75.9696 65.2857 75.9338 65.2617 75.8986 65.2381C75.8603 65.2144 75.8159 65.1966 75.7597 65.1784C75.461 65.1043 75.2719 65.2141 75.1893 65.5141C75.1568 65.6835 75.1418 65.8557 75.1452 66.0309C75.1452 66.1555 75.148 66.2772 75.1541 66.402C75.1568 66.4463 75.1568 66.4912 75.1599 66.5355C75.1626 66.6037 75.1626 66.6689 75.1626 66.7372C75.1626 66.7817 75.1568 66.8294 75.148 66.8737L75.1391 66.9004C75.1039 66.9982 75.0387 67.0637 74.9441 67.0932C74.8526 67.123 74.7581 67.1258 74.6635 67.1052C74.5454 67.0756 74.4744 67.0249 74.4478 66.9536C74.4212 66.8792 74.4095 66.7962 74.4126 66.6982C74.4095 66.6686 74.4095 66.6388 74.4095 66.6062C74.3918 66.3418 74.386 66.0747 74.3918 65.8075C74.3948 65.3737 74.4894 65.0266 74.6815 64.7625C74.8707 64.4981 75.1956 64.3677 75.6537 64.3647L75.6532 64.3652Z" fill="#8E5E32"/>
<path d="M77.775 64.0624C77.7839 64.1485 77.8252 64.2081 77.8962 64.2407C77.9699 64.2733 78.0498 64.2884 78.1355 64.285C78.2921 64.2761 78.4338 64.2998 78.5583 64.3536C78.6851 64.407 78.7444 64.5079 78.7355 64.6561C78.7178 64.772 78.6587 64.8492 78.5583 64.8845C78.4577 64.9202 78.3484 64.9442 78.2242 64.9531C78.103 64.9648 77.9968 64.9857 77.9081 65.0185C77.8194 65.0539 77.7753 65.1252 77.7753 65.235C77.7753 65.3063 77.778 65.3746 77.7753 65.4459C77.7722 65.5821 77.778 65.7069 77.793 65.8287C77.8077 65.9474 77.8493 66.0543 77.9197 66.1432C77.988 66.2324 78.1061 66.3009 78.2658 66.3421C78.3867 66.3717 78.4785 66.4134 78.5345 66.4667C78.5938 66.5232 78.6232 66.6124 78.6291 66.7369C78.6263 66.921 78.5553 67.0366 78.4225 67.0815C78.2866 67.1291 78.133 67.1291 77.9586 67.0874C77.7869 67.0458 77.6452 66.9834 77.5329 66.9032C77.4176 66.8143 77.323 66.7132 77.2551 66.5976C77.1871 66.482 77.1339 66.3541 77.0984 66.2207C77.0629 66.0424 77.0421 65.8643 77.0332 65.6833C77.0008 65.0358 76.998 64.3797 77.0185 63.7178C77.0213 63.5844 77.0244 63.4534 77.0274 63.32V63.2693C77.0274 63.1567 77.0332 63.0439 77.051 62.9367C77.0685 62.83 77.1159 62.7467 77.193 62.6842C77.2698 62.6249 77.3968 62.6101 77.5712 62.6366C77.6863 62.6634 77.7573 62.7258 77.7778 62.8266C77.7986 62.9277 77.8044 63.0314 77.7927 63.1411C77.7927 63.1799 77.7897 63.2127 77.7897 63.245C77.7897 63.3609 77.7866 63.4707 77.7778 63.5718C77.7661 63.7234 77.7661 63.8864 77.775 64.0616V64.0624Z" fill="#8E5E32"/>
<path d="M79.9296 63.9646C79.9179 64.2466 79.9149 64.6087 79.921 65.0542C79.9268 65.3361 79.9296 65.6629 79.9357 66.0398C79.9384 66.4198 79.9384 66.6901 79.9357 66.8536C79.921 66.9751 79.8616 67.0553 79.7582 67.094C79.652 67.1297 79.5427 67.1266 79.4332 67.0851C79.3237 67.0408 79.2588 66.9606 79.2352 66.8416C79.1969 66.4616 79.1759 66.0014 79.1789 65.4582C79.1789 65.3155 79.1759 65.1732 79.1728 65.0275C79.167 64.5912 79.1642 64.2435 79.1642 63.9855C79.1612 63.7273 79.1642 63.457 79.167 63.1748C79.1817 62.8929 79.2499 62.7177 79.3739 62.6436C79.495 62.5692 79.6193 62.575 79.7402 62.6553C79.8613 62.7355 79.9293 62.8659 79.9381 63.047C79.9412 63.4122 79.9382 63.7181 79.9293 63.9646H79.9296Z" fill="#8E5E32"/>
<path d="M80.9993 66.7998C80.7539 66.6249 80.5887 66.3457 80.5088 65.9688C80.4262 65.5888 80.4173 65.1286 80.4852 64.5881C80.5088 64.4722 80.574 64.3951 80.6863 64.3505C80.8013 64.3062 80.9137 64.2998 81.029 64.3327C81.1413 64.3653 81.2123 64.4396 81.2389 64.5552C81.2478 64.6324 81.2447 64.7659 81.2359 64.9531C81.2239 65.1135 81.2212 65.2826 81.2212 65.4637C81.2212 65.642 81.2359 65.8053 81.2653 65.9476C81.3127 66.117 81.3923 66.2237 81.5048 66.2652C81.6199 66.3067 81.7292 66.3009 81.8387 66.2474C81.9482 66.1939 82.0162 66.1078 82.0486 65.9891C82.0811 65.8345 82.0927 65.6624 82.0869 65.4782C82.0811 65.2943 82.0722 65.1102 82.0544 64.9319C82.0456 64.8221 82.0397 64.7154 82.0339 64.6174C82.0367 64.4928 82.096 64.4037 82.2111 64.3561C82.3234 64.3084 82.4418 64.3026 82.563 64.3354C82.6839 64.365 82.7549 64.4394 82.7757 64.5519C82.8081 64.8369 82.8259 65.128 82.8289 65.4281C82.8347 65.7248 82.7995 65.9981 82.7255 66.2474C82.6514 66.497 82.5097 66.687 82.3057 66.8235C82.1343 66.9391 82.0397 67.0907 82.0162 67.2807C81.9956 67.4707 81.9984 67.6844 82.0278 67.922C82.0486 68.112 82.0575 68.3109 82.0575 68.5157C82.0428 68.6076 81.9718 68.6731 81.8448 68.7115C81.7178 68.75 81.5875 68.753 81.4577 68.7174C81.3307 68.682 81.2567 68.5987 81.242 68.468C81.2392 68.2454 81.2508 68.0373 81.2744 67.8443C81.3038 67.622 81.3099 67.4228 81.2863 67.2478C81.2655 67.0726 81.171 66.921 80.9996 66.7993L80.9993 66.7998Z" fill="#8E5E32"/>
<path d="M43.8066 6.68363C42.8558 4.45966 40.9439 3.27537 38.8057 4.52596C37.1209 5.51133 36.6304 7.64811 36.6293 9.43387C34.584 9.10346 31.5227 9.14218 31.3183 11.6305C31.0355 15.0753 36.871 16.5279 39.3378 15.8445C39.3484 15.8414 39.357 15.8367 39.3672 15.8333C41.0115 15.869 41.819 15.3062 42.8225 14.1186C44.4397 12.2044 44.7772 8.9533 43.8066 6.68363Z" fill="#9DB1CB"/>
<path d="M9.39544 43.8608C9.31669 43.726 9.1456 43.6831 9.01444 43.7644C8.57771 44.0377 8.19505 44.3458 7.86563 44.6849C7.51042 45.0504 7.2176 45.4518 6.99189 45.8884C6.91979 46.028 6.97137 46.201 7.10641 46.2753C7.14772 46.2979 7.19264 46.3088 7.23646 46.3088C7.33573 46.3088 7.43195 46.2536 7.48158 46.1569C7.78826 45.5633 8.23858 45.039 8.81978 44.591C8.97202 44.4734 9.13146 44.36 9.30199 44.2533C9.43315 44.1714 9.47474 43.9954 9.39516 43.8603L9.39544 43.8608Z" fill="#F16334"/>
<path d="M5.30596 42.467L1.77688 43.3694C1.41391 43.4622 1.12775 43.7424 1.02626 44.1049L0.0393812 47.6268C-0.0621071 47.9889 0.036331 48.3781 0.298093 48.6475L2.84057 51.2671C3.10205 51.5365 3.48666 51.6454 3.84991 51.5527L7.37898 50.6503C7.74196 50.5575 8.02812 50.2773 8.12961 49.9148L9.11648 46.3929C9.21797 46.0307 9.11954 45.6416 8.85777 45.3722L6.3153 42.7526C6.05381 42.4832 5.66921 42.3743 5.30596 42.467Z" fill="#9DB1CB"/>
<path d="M5.0905 43.8109L2.60542 44.4464C2.34976 44.5119 2.14845 44.7091 2.07691 44.9643L1.38202 47.444C1.31048 47.6992 1.38008 47.9731 1.5642 48.1628L3.35438 50.0073C3.5385 50.197 3.80942 50.2737 4.06508 50.2082L6.55016 49.5727C6.80582 49.5073 7.00713 49.31 7.07867 49.0548L7.77356 46.5751C7.8451 46.3199 7.7755 46.0461 7.59138 45.8563L5.80119 44.0118C5.61707 43.8221 5.34616 43.7455 5.0905 43.8109Z" fill="#F4E6D7"/>
<path d="M3.30366 47.0248C3.53674 47.0248 3.72569 46.8349 3.72569 46.6007C3.72569 46.3666 3.53674 46.1767 3.30366 46.1767C3.07057 46.1767 2.88162 46.3666 2.88162 46.6007C2.88162 46.8349 3.07057 47.0248 3.30366 47.0248Z" fill="#1D4688"/>
<path d="M5.50202 46.4626C5.73511 46.4626 5.92406 46.2727 5.92406 46.0385C5.92406 45.8044 5.73511 45.6145 5.50202 45.6145C5.26894 45.6145 5.07999 45.8044 5.07999 46.0385C5.07999 46.2727 5.26894 46.4626 5.50202 46.4626Z" fill="#1D4688"/>
<path d="M3.66026 48.4325C3.89334 48.4325 4.08229 48.2426 4.08229 48.0085C4.08229 47.7743 3.89334 47.5844 3.66026 47.5844C3.42717 47.5844 3.23822 47.7743 3.23822 48.0085C3.23822 48.2426 3.42717 48.4325 3.66026 48.4325Z" fill="#1D4688"/>
<path d="M5.85862 47.8703C6.0917 47.8703 6.28066 47.6804 6.28066 47.4463C6.28066 47.2121 6.0917 47.0222 5.85862 47.0222C5.62554 47.0222 5.43658 47.2121 5.43658 47.4463C5.43658 47.6804 5.62554 47.8703 5.85862 47.8703Z" fill="#1D4688"/>
<path d="M17.9631 63.3529C17.0614 63.0665 16.25 62.6645 15.551 62.1577C15.4257 62.0666 15.2529 62.0981 15.1642 62.2274C15.076 62.3566 15.1062 62.5352 15.2316 62.626C15.978 63.167 16.8421 63.5958 17.799 63.9C17.8264 63.9087 17.8536 63.9125 17.8808 63.9125C17.9995 63.9125 18.1093 63.8337 18.1462 63.7109C18.1911 63.5596 18.109 63.3997 17.9626 63.3529H17.9631Z" fill="#F16334"/>
<path d="M12.5011 57.7329C12.4589 57.5805 12.3042 57.4936 12.1581 57.5367C12.0105 57.5802 11.9257 57.7387 11.9678 57.8906C12.2143 58.777 12.6375 59.6654 13.2251 60.5319C13.2789 60.6115 13.3651 60.6539 13.4527 60.6539C13.5076 60.6539 13.5631 60.6372 13.6116 60.6021C13.737 60.5115 13.7677 60.3329 13.6798 60.2037C13.1272 59.3894 12.7309 58.5581 12.5011 57.7329Z" fill="#F16334"/>
<path d="M14.4676 42.3063C14.0636 42.3152 13.712 42.3378 13.3931 42.3759C12.7839 42.4484 12.2019 42.5528 11.6634 42.6866C11.5145 42.7233 11.4224 42.8779 11.4582 43.0317C11.4887 43.1629 11.6027 43.251 11.7277 43.251C11.7491 43.251 11.771 43.2485 11.7929 43.2429C12.31 43.1147 12.8699 43.0145 13.4569 42.9442C13.7583 42.9083 14.0924 42.8869 14.4787 42.8785C14.6321 42.8752 14.7538 42.7445 14.7505 42.5863C14.7471 42.4283 14.6312 42.306 14.4673 42.306L14.4676 42.3063Z" fill="#F16334"/>
<path d="M15.3677 53.1682C16.219 52.6057 16.346 52.0026 16.346 51.6933C16.346 51.1189 15.9339 50.6458 15.3433 50.5431C15.1924 50.5177 15.0494 50.6222 15.0236 50.7779C14.9981 50.9336 15.1001 51.0813 15.2512 51.1077C15.574 51.164 15.7911 51.3994 15.7911 51.6936C15.7911 52.0212 15.5277 52.3829 15.0682 52.6868C14.9393 52.772 14.9018 52.9489 14.9845 53.0821C15.0374 53.1674 15.127 53.2136 15.2182 53.2136C15.2695 53.2136 15.3211 53.1988 15.3677 53.1682Z" fill="#F16334"/>
<path d="M12.0652 55.2663C12.1983 55.2663 12.3158 55.1674 12.3386 55.0272C12.3924 54.6954 12.4714 54.3859 12.5648 54.1012C12.5854 54.1001 12.6062 54.0987 12.6267 54.0973C12.7795 54.0862 12.8948 53.9494 12.8843 53.792C12.8782 53.7011 12.8313 53.6229 12.7637 53.5755C12.9492 53.1434 13.1588 52.7876 13.3407 52.5196C13.4283 52.3904 13.3976 52.2118 13.2719 52.1213C13.1463 52.0313 12.9736 52.0628 12.8854 52.1923C12.6611 52.5241 12.3974 52.9782 12.1766 53.5379C11.4407 53.5251 10.7239 53.3415 10.0457 52.9913C9.90868 52.9214 9.74203 52.9779 9.67326 53.1192C9.60477 53.2604 9.66023 53.4323 9.79749 53.5031C10.4938 53.8624 11.2272 54.0639 11.9814 54.1034C11.9043 54.3631 11.8392 54.6403 11.7915 54.9333C11.7663 55.0891 11.8683 55.2364 12.0194 55.2629C12.0349 55.2657 12.0502 55.2668 12.0654 55.2668L12.0652 55.2663Z" fill="#F16334"/>
<path d="M27.4834 31.8809C27.7989 31.6853 28.1782 31.582 28.5803 31.582H28.5811C28.9799 31.582 29.3994 31.6803 29.8287 31.874L29.8877 31.9015C29.926 31.9199 29.9659 31.9286 30.0053 31.9286C30.1096 31.9286 30.2097 31.8675 30.2568 31.7639C30.322 31.6207 30.2624 31.4505 30.1234 31.3834L30.0513 31.3496C29.5514 31.124 29.0567 31.0095 28.5809 31.0095H28.58C28.0773 31.0095 27.5993 31.141 27.1975 31.39C27.066 31.4714 27.0236 31.6472 27.1024 31.7829C27.1811 31.918 27.3516 31.9623 27.4834 31.8809Z" fill="#F16334"/>
<path d="M28.4968 35.1139C28.7104 35.1284 28.9266 35.1357 29.1399 35.1357L29.2968 35.1343C29.4502 35.1318 29.5725 35.0017 29.57 34.8434C29.5672 34.6855 29.4302 34.5634 29.2882 34.5618L29.1399 34.5632C28.9388 34.5632 28.7348 34.5562 28.5332 34.5426C27.7886 34.4924 27.2355 34.2654 26.9321 33.8859C26.835 33.7639 26.6604 33.7463 26.5417 33.8469C26.4233 33.9475 26.4064 34.1277 26.504 34.2498C26.7846 34.6013 27.3586 35.037 28.4968 35.1139Z" fill="#F16334"/>
<path d="M20.0082 42.3372C19.5171 42.3623 19.0143 42.3743 18.4714 42.3743H18.4612C18.0441 42.3743 17.642 42.367 17.2541 42.3575C17.2516 42.3575 17.2494 42.3575 17.2474 42.3575C17.0972 42.3575 16.9738 42.4812 16.9699 42.637C16.9663 42.7949 17.0875 42.9261 17.2405 42.9298C17.6326 42.9395 18.0397 42.9468 18.4612 42.9468H18.4714C19.0235 42.9468 19.5354 42.9342 20.0353 42.9091C20.1884 42.9013 20.3065 42.7671 20.299 42.6091C20.2915 42.4511 20.1559 42.3325 20.0082 42.3372Z" fill="#F16334"/>
<path d="M44.8961 61.4941C44.2642 60.7171 43.4195 60.212 42.3852 59.9933C42.2344 59.9624 42.0885 60.0616 42.0578 60.2159C42.027 60.3708 42.1235 60.5221 42.2738 60.5539C43.1824 60.7461 43.9217 61.186 44.471 61.8618C44.5259 61.9293 44.6047 61.9641 44.684 61.9641C44.7469 61.9641 44.8099 61.9424 44.862 61.8972C44.9793 61.7955 44.9945 61.6153 44.8961 61.4941Z" fill="#F16334"/>
<path d="M39.5222 60.0318C39.1515 60.1026 38.7624 60.1973 38.3654 60.3132C37.8737 60.4572 37.3552 60.6143 36.8142 60.7801C36.6672 60.8252 36.5835 60.9846 36.6273 61.1361C36.6633 61.2604 36.7737 61.3406 36.8935 61.3406C36.9196 61.3406 36.9462 61.3367 36.9725 61.3289C37.5113 61.1637 38.0276 61.0071 38.5168 60.8637C38.8969 60.7525 39.2693 60.662 39.6229 60.5946C39.7734 60.5659 39.8733 60.4165 39.8453 60.2611C39.8175 60.1056 39.6728 60.0017 39.5222 60.0318Z" fill="#F16334"/>
<path d="M37.5349 28.1239C37.3876 28.0748 37.2323 28.1562 37.1844 28.3063C37.155 28.3988 37.1736 28.4955 37.2262 28.5677C37.2043 28.8504 36.8818 29.7327 36.1418 30.7727C36.0514 30.9 36.0777 31.0791 36.2014 31.1725C36.251 31.2098 36.3084 31.2279 36.3653 31.2279C36.4507 31.2279 36.535 31.1875 36.5893 31.1109C37.3724 30.0102 37.7822 28.9836 37.7822 28.5387C37.7822 28.2398 37.6092 28.1487 37.5346 28.1233L37.5349 28.1239Z" fill="#F16334"/>
<path d="M45.9856 64.2652C45.9709 64.1078 45.8378 63.9914 45.6836 64.0064C45.5308 64.0212 45.4185 64.1605 45.4326 64.3176C45.4454 64.46 45.4518 64.6029 45.4515 64.7433C45.4515 65.5306 45.261 66.2521 44.8855 66.8887C44.806 67.0236 44.8476 67.1996 44.9784 67.2818C45.0234 67.3099 45.0733 67.3233 45.1224 67.3233C45.2161 67.3233 45.3073 67.2743 45.3597 67.186C45.7829 66.4689 46.0066 65.6242 46.0066 64.7439C46.0066 64.5859 46 64.4252 45.9856 64.2652Z" fill="#F16334"/>
<path d="M34.2656 32.7596C33.6043 33.2844 32.89 33.7007 32.1391 33.9987C32.1111 33.8806 32.0786 33.7639 32.0412 33.6494C31.9924 33.4998 31.8352 33.4198 31.6899 33.4691C31.5445 33.5196 31.4664 33.6817 31.5152 33.8316C31.6427 34.2233 31.7073 34.6403 31.7073 35.0719C31.7073 35.5332 31.633 36.0015 31.4869 36.464C31.4392 36.6141 31.5188 36.7757 31.6643 36.8248C31.6932 36.8345 31.722 36.839 31.7506 36.839C31.8673 36.839 31.976 36.7623 32.0143 36.6414C32.1787 36.1219 32.2622 35.5937 32.2622 35.0719C32.2622 34.9036 32.2536 34.737 32.2364 34.5729C33.0746 34.2525 33.8705 33.7957 34.6039 33.2134C34.7256 33.117 34.7481 32.9373 34.6549 32.8122C34.5615 32.6869 34.3871 32.6635 34.2659 32.7599L34.2656 32.7596Z" fill="#F16334"/>
<path d="M42.9417 68.638C42.2288 69.0021 41.3654 69.269 40.376 69.4314C40.2249 69.4562 40.1214 69.6027 40.1456 69.759C40.1672 69.9 40.285 70.0003 40.4192 70.0003C40.4337 70.0003 40.4484 69.9992 40.4631 69.9967C41.5076 69.8253 42.4243 69.5409 43.1874 69.1514C43.3247 69.0812 43.3813 68.9093 43.313 68.7681C43.2451 68.6263 43.0785 68.568 42.9412 68.6385L42.9417 68.638Z" fill="#F16334"/>
<path d="M34.1541 61.5952C33.1428 61.9 32.2957 62.1452 31.488 62.3661C31.3399 62.4065 31.2517 62.5633 31.2911 62.7163C31.3241 62.8442 31.4364 62.9289 31.5592 62.9289C31.5828 62.9289 31.6069 62.9258 31.6308 62.9194C32.443 62.6971 33.2943 62.4508 34.31 62.1446C34.4572 62.1003 34.5418 61.9413 34.4985 61.7897C34.4555 61.6379 34.3016 61.5507 34.1541 61.5952Z" fill="#F16334"/>
<path d="M25.4048 41.4231C25.1378 41.5056 24.8607 41.5836 24.5815 41.6552C23.9737 41.8107 23.3526 41.9419 22.7356 42.0452C22.5845 42.0706 22.4816 42.2174 22.506 42.3737C22.5282 42.5141 22.646 42.6138 22.7797 42.6138C22.7944 42.6138 22.8093 42.6127 22.8243 42.6099C23.4565 42.5041 24.0926 42.3698 24.7146 42.2107C25.0027 42.1372 25.2883 42.0567 25.564 41.9714C25.7109 41.926 25.7941 41.7666 25.75 41.6151C25.7062 41.4638 25.5518 41.3772 25.4048 41.4231Z" fill="#F16334"/>
<path d="M28.803 63.0428C27.851 63.2584 26.9393 63.4362 26.093 63.5704C25.9416 63.5944 25.8376 63.7406 25.8609 63.8969C25.882 64.0385 26.0001 64.1396 26.1349 64.1396C26.149 64.1396 26.1632 64.1385 26.1773 64.1362C27.035 64.0003 27.9584 63.8206 28.9219 63.6019C29.0714 63.5682 29.1662 63.4153 29.1332 63.2609C29.1005 63.1063 28.9511 63.0088 28.8027 63.0431L28.803 63.0428Z" fill="#F16334"/>
<path d="M30.0882 38.7504C29.5045 39.3607 28.7755 39.9079 27.9223 40.3765C27.787 40.4509 27.7357 40.6242 27.8078 40.7637C27.8577 40.8604 27.9539 40.9153 28.0529 40.9153C28.0967 40.9153 28.1416 40.9044 28.183 40.8818C29.0861 40.386 29.86 39.804 30.4834 39.1524C30.5909 39.0398 30.5898 38.8587 30.4806 38.7479C30.3713 38.637 30.1958 38.6378 30.0882 38.7504Z" fill="#F16334"/>
<path d="M23.3612 63.8788C22.3798 63.9376 21.465 63.9315 20.6273 63.8602C20.4701 63.8482 20.3406 63.9646 20.3279 64.122C20.3154 64.2797 20.4291 64.4176 20.5819 64.4307C21.0563 64.4708 21.5582 64.4914 22.0734 64.4914C22.4957 64.4914 22.9399 64.4775 23.3939 64.4502C23.5467 64.441 23.6634 64.3056 23.6545 64.1479C23.6457 63.9903 23.5234 63.8702 23.3614 63.8791L23.3612 63.8788Z" fill="#F16334"/>
<path d="M7.3335 51.2417C7.11555 50.9439 6.92949 50.6302 6.77559 50.3065C6.53795 49.807 6.37823 49.2835 6.30725 48.7567C6.2859 48.6002 6.14198 48.4912 5.98698 48.5113C5.83086 48.5325 5.72161 48.6768 5.74268 48.8331C5.81617 49.3788 5.97644 49.9198 6.21047 50.4386C6.38933 50.835 6.60977 51.2192 6.87431 51.5808C6.93032 51.6571 7.01656 51.6972 7.10418 51.6972C7.16269 51.6972 7.22175 51.6791 7.27277 51.6415C7.39922 51.5479 7.42667 51.3691 7.3335 51.2417Z" fill="#F16334"/>
<path d="M34.2049 24.1119C34.2049 24.1119 34.2828 17.1747 38.8612 14.6201C42.6176 12.524 48.5056 10.188 54.0647 14.9474C58.4143 18.671 56.8401 23.7845 54.6595 26.6011C53.6604 27.8918 51.8264 29.1101 51.0356 29.4622C47.9707 30.8267 42.7668 32.7061 39.2854 30.7551C36.055 28.9449 35.0581 26.7092 35.0581 26.7092C35.0581 26.7092 32.12 26.0974 32.5678 25.6653C33.0153 25.2332 34.1381 24.6195 34.2052 24.1122L34.2049 24.1119Z" fill="#F8CD16"/>
<path d="M50.1921 15.7743C50.0213 14.9296 49.9256 14.1014 50.0382 13.24C50.1527 12.363 50.5079 11.6353 50.811 10.8232C50.8554 10.7042 50.6968 10.5953 50.6141 10.7045C49.6006 12.0451 49.5166 14.2716 50.0673 15.8038C50.0914 15.8712 50.2068 15.8476 50.1918 15.7743H50.1921Z" fill="#8E5E32"/>
<path d="M51.5203 11.1817C51.7909 10.9831 51.8763 10.5535 51.6598 10.2822C51.4424 10.0097 51.0545 9.9292 50.7644 10.142C50.4938 10.3407 50.4084 10.7703 50.6249 11.0416C50.8415 11.313 51.2303 11.3946 51.5203 11.1817Z" fill="#8E5E32"/>
<path d="M52.7856 15.5676C53.2894 13.5899 54.1593 11.5116 56.1247 10.6457C56.2708 10.5814 56.1799 10.324 56.0265 10.3774C55.0175 10.7293 54.2519 11.5049 53.7181 12.4175C53.2079 13.2895 52.6389 14.5315 52.6772 15.5486C52.6794 15.6082 52.7692 15.6327 52.7859 15.5673L52.7856 15.5676Z" fill="#8E5E32"/>
<path d="M56.6471 11.335C56.9125 11.1937 57.0431 10.824 56.8856 10.5552C56.7281 10.2863 56.394 10.1643 56.1095 10.3156C55.8441 10.4568 55.7135 10.8265 55.871 11.0954C56.0285 11.3642 56.3626 11.4862 56.6471 11.335Z" fill="#8E5E32"/>
<path d="M43.7955 12.5641C42.9351 12.7819 42.1113 13.0731 41.3357 13.4004C40.884 16.1515 40.9031 18.8986 41.5085 21.8314C42.2469 25.4087 43.9991 28.7395 46.7706 31.0164C48.0162 30.6799 49.2013 30.24 50.2234 29.8127C49.2964 28.5445 48.3977 27.297 47.4929 25.9929C46.3649 24.3668 45.672 22.5295 45.1828 20.6178C44.532 18.0743 43.9303 15.2865 43.7958 12.5641H43.7955Z" fill="#8E5E32"/>
<path d="M38.4308 24.8443C37.127 21.3856 36.5469 17.7926 38.8273 14.6407C34.808 16.9143 34.2828 22.5727 34.2152 23.8497C34.2326 23.9826 34.2531 24.1144 34.2739 24.2456C33.8794 24.6033 33.1737 25.2014 32.7821 25.3243C32.4865 25.4174 32.359 25.8692 32.6302 26.069C32.9868 26.3314 33.3672 26.2478 33.7818 26.3345C34.0288 26.386 34.3017 26.4601 34.5604 26.5598C34.7586 26.6883 34.963 26.7933 35.1466 26.8811C35.4466 27.4327 36.5824 29.2402 39.2854 30.7548C40.5845 31.4828 42.1235 31.675 43.7015 31.5622C42.7937 30.739 41.7095 30.1495 40.8934 29.1931C39.8095 27.9224 39.0175 26.4002 38.4308 24.8437V24.8443Z" fill="#8E5E32"/>
<path d="M49.7379 22.1041C49.7429 21.8921 49.594 21.6865 49.4157 21.5848C49.2984 21.518 49.1531 21.4817 49.0183 21.4932C48.9074 21.5026 48.799 21.5294 48.7028 21.5876C48.588 21.6572 48.4903 21.7726 48.4518 21.9041C48.4113 21.9631 48.3811 22.0292 48.3631 22.1038C48.3184 22.2896 48.3975 22.5047 48.5419 22.6267C48.6972 22.7582 48.8913 22.8131 49.0915 22.7655C49.2002 22.7396 49.2978 22.6763 49.3927 22.6189C49.4428 22.5886 49.4894 22.5588 49.5357 22.5225C49.6661 22.4203 49.734 22.271 49.7379 22.1041Z" fill="#F16334"/>
<path d="M56.4932 20.7808C56.5512 20.5769 56.4586 20.3403 56.3113 20.1969C56.2145 20.1027 56.0828 20.0306 55.9497 20.0077C55.8402 19.9888 55.7285 19.9874 55.6206 20.0194C55.4922 20.0579 55.3688 20.1448 55.2984 20.2623C55.2446 20.3094 55.1986 20.3657 55.1625 20.4334C55.0727 20.6019 55.0957 20.8301 55.2047 20.9847C55.3222 21.1513 55.4961 21.2536 55.7018 21.2577C55.8136 21.26 55.9239 21.2235 56.0299 21.192C56.0862 21.1753 56.1386 21.1583 56.1926 21.1349C56.3446 21.0689 56.4478 20.9413 56.4932 20.7808Z" fill="#F16334"/>
<path d="M55.218 19.1998C54.9737 18.7892 54.3531 18.5911 53.9117 18.7516C53.44 18.9229 53.1821 19.4143 53.2772 19.8999C53.29 19.9651 53.3784 19.9545 53.3973 19.9005C53.5337 19.5116 53.7858 19.1243 54.2477 19.1625C54.5475 19.1873 54.802 19.3854 55.1004 19.4018C55.2016 19.4074 55.2679 19.2842 55.2177 19.1998H55.218Z" fill="#8E5E32"/>
<path d="M51.085 19.73C50.8748 19.2945 50.4197 18.9218 49.914 18.9633C49.465 19.0003 48.952 19.3728 49.0441 19.8684C49.0677 19.996 49.2604 20.0548 49.3458 19.9523C49.5396 19.7202 49.6591 19.4723 49.991 19.4263C50.3451 19.3773 50.6371 19.5915 50.8188 19.881C50.9241 20.049 51.1704 19.9072 51.0847 19.7297L51.085 19.73Z" fill="#8E5E32"/>
<path d="M53.5345 21.777C53.519 21.7871 52.6785 22.3975 52.2138 22.4092C51.8353 22.4186 51.4807 22.2874 51.1254 22.1779C51.0594 22.1398 50.9901 22.1074 50.915 22.0846C50.7813 22.0442 50.7059 22.2094 50.7849 22.3052C51.243 22.8596 51.7072 23.4993 52.531 23.3633C53.242 23.246 53.5232 22.5284 53.7156 21.9191C53.7475 21.8186 53.6249 21.7191 53.5345 21.777Z" fill="#8E5E32"/>
</g>
<defs>
<clipPath id="clip0_6_1683">
<rect width="92" height="70" fill="white"/>
</clipPath>
</defs>
</svg>
