<svg width="24" height="24" viewBox="0 0 24 24" fill="none" xmlns="http://www.w3.org/2000/svg">
<path fill-rule="evenodd" clip-rule="evenodd" d="M10.9044 4.45121C10.1195 5.0757 9.63098 6.08599 9.48665 7.72964C9.45137 8.13148 9.09059 8.42918 8.68083 8.39458C8.27108 8.35998 7.9675 8.00617 8.00279 7.60434C8.16626 5.74264 8.75003 4.28457 9.96593 3.31704C11.1613 2.36588 12.8318 2 14.9107 2H15.0397C17.3325 2 19.1314 2.44575 20.3385 3.62943C21.5455 4.8131 22 6.57724 22 8.82571V15.1743C22 17.4228 21.5455 19.1869 20.3385 20.3706C19.1314 21.5542 17.3325 22 15.0397 22H14.9107C12.8469 22 11.1864 21.639 9.99353 20.7032C8.7791 19.7504 8.18761 18.3136 8.01319 16.4787C7.97501 16.0771 8.27603 15.7212 8.68553 15.6838C9.09503 15.6463 9.45794 15.9415 9.49612 16.3431C9.64935 17.9551 10.1401 18.9477 10.9239 19.5627C11.7292 20.1945 12.9829 20.5394 14.9107 20.5394H15.0397C17.1852 20.5394 18.4941 20.1137 19.2853 19.3378C20.0765 18.5619 20.5106 17.2783 20.5106 15.1743V8.82571C20.5106 6.72169 20.0765 5.43812 19.2853 4.6622C18.4941 3.88628 17.1852 3.46056 15.0397 3.46056H14.9107C12.9682 3.46056 11.7097 3.81037 10.9044 4.45121Z" fill="#0A0A0A"/>
<path fill-rule="evenodd" clip-rule="evenodd" d="M2.97725 12C2.97725 11.5858 3.31617 11.25 3.73424 11.25H15.2203C15.6383 11.25 15.9773 11.5858 15.9773 12C15.9773 12.4142 15.6383 12.75 15.2203 12.75H3.73424C3.31617 12.75 2.97725 12.4142 2.97725 12Z" fill="#0A0A0A"/>
<path fill-rule="evenodd" clip-rule="evenodd" d="M6.77354 8.21431C7.07549 8.50006 7.07549 8.96335 6.77354 9.2491L3.86666 12L6.77354 14.7509C7.07549 15.0366 7.07549 15.4999 6.77354 15.7857C6.47158 16.0714 5.98202 16.0714 5.68007 15.7857L2.22646 12.5174C1.92451 12.2316 1.92451 11.7684 2.22646 11.4826L5.68007 8.21431C5.98202 7.92856 6.47158 7.92856 6.77354 8.21431Z" fill="#0A0A0A"/>
</svg>
