<svg width="34" height="25" viewBox="0 0 34 25" fill="none" xmlns="http://www.w3.org/2000/svg">
<rect x="0.5" y="1.11035" width="33" height="23" rx="3.5" fill="white"/>
<rect x="0.5" y="1.11035" width="33" height="23" rx="3.5" stroke="#F9F7F6"/>
<path fill-rule="evenodd" clip-rule="evenodd" d="M17.179 17.4398C15.9949 18.4379 14.459 19.0404 12.7807 19.0404C9.03582 19.0404 6 16.0407 6 12.3404C6 8.64007 9.03582 5.64038 12.7807 5.64038C14.459 5.64038 15.9949 6.24288 17.179 7.24092C18.363 6.24288 19.8989 5.64038 21.5773 5.64038C25.3221 5.64038 28.358 8.64007 28.358 12.3404C28.358 16.0407 25.3221 19.0404 21.5773 19.0404C19.8989 19.0404 18.363 18.4379 17.179 17.4398Z" fill="#ED0006"/>
<path fill-rule="evenodd" clip-rule="evenodd" d="M17.179 17.4398C18.6369 16.2109 19.5614 14.3823 19.5614 12.3404C19.5614 10.2984 18.6369 8.46982 17.179 7.24092C18.363 6.24288 19.8989 5.64038 21.5772 5.64038C25.3221 5.64038 28.3579 8.64007 28.3579 12.3404C28.3579 16.0407 25.3221 19.0404 21.5772 19.0404C19.8989 19.0404 18.363 18.4379 17.179 17.4398Z" fill="#F9A000"/>
<path fill-rule="evenodd" clip-rule="evenodd" d="M17.179 17.4398C18.6369 16.2109 19.5614 14.3823 19.5614 12.3404C19.5614 10.2985 18.6369 8.46987 17.179 7.24097C15.7211 8.46987 14.7966 10.2985 14.7966 12.3404C14.7966 14.3823 15.7211 16.2109 17.179 17.4398Z" fill="#FF5E00"/>
</svg>
