<svg width="34" height="25" viewBox="0 0 34 25" fill="none" xmlns="http://www.w3.org/2000/svg">
<rect x="0.5" y="1.11035" width="33" height="23" rx="3.5" fill="white"/>
<rect x="0.5" y="1.11035" width="33" height="23" rx="3.5" stroke="#F9F7F6"/>
<path fill-rule="evenodd" clip-rule="evenodd" d="M14.6142 19.0586L14.8349 17.6095L14.3432 17.5977H11.9953L13.627 6.90405C13.6321 6.87167 13.6485 6.84161 13.6725 6.82022C13.6967 6.79884 13.7274 6.78711 13.7596 6.78711H17.7185C19.033 6.78711 19.94 7.06975 20.4135 7.62769C20.6355 7.88943 20.7769 8.16302 20.8453 8.46399C20.9171 8.77986 20.9183 9.1572 20.8483 9.61751L20.8432 9.65099V9.94596L21.0652 10.076C21.2521 10.1785 21.4008 10.2958 21.5147 10.4301C21.7046 10.654 21.8274 10.9384 21.8793 11.2756C21.933 11.6224 21.9153 12.0351 21.8274 12.5024C21.7261 13.0398 21.5624 13.5079 21.3412 13.8909C21.1378 14.2438 20.8787 14.5366 20.5709 14.7634C20.2772 14.9789 19.9282 15.1425 19.5335 15.2473C19.1511 15.3501 18.7151 15.4021 18.2368 15.4021H17.9287C17.7085 15.4021 17.4945 15.4841 17.3265 15.6311C17.158 15.7811 17.0467 15.9862 17.0125 16.2104L16.9892 16.3409L16.5992 18.8951L16.5816 18.9889C16.5768 19.0186 16.5688 19.0333 16.557 19.0434C16.5465 19.0525 16.5313 19.0586 16.5166 19.0586H14.6142Z" fill="#28356A"/>
<path fill-rule="evenodd" clip-rule="evenodd" d="M21.2756 9.68494C21.2639 9.76302 21.2503 9.84281 21.2352 9.9248C20.7131 12.6954 18.9269 13.6526 16.6456 13.6526H15.4841C15.2051 13.6526 14.9699 13.8619 14.9265 14.1464L14.1634 19.1496C14.1351 19.3365 14.2744 19.5047 14.4567 19.5047H16.5169C16.7608 19.5047 16.968 19.3216 17.0064 19.0729L17.0267 18.9648L17.4146 16.4205L17.4395 16.281C17.4774 16.0315 17.6852 15.8482 17.9291 15.8482H18.2372C20.2331 15.8482 21.7957 15.0107 22.2524 12.5868C22.4431 11.5743 22.3444 10.7288 21.8396 10.1342C21.6868 9.95499 21.4973 9.80615 21.2756 9.68494Z" fill="#298FC2"/>
<path fill-rule="evenodd" clip-rule="evenodd" d="M20.7293 9.45991C20.6495 9.43584 20.5672 9.41409 20.4828 9.39442C20.3979 9.37523 20.311 9.35825 20.2215 9.34334C19.9083 9.29104 19.5651 9.26624 19.1975 9.26624H16.0945C16.018 9.26624 15.9454 9.28408 15.8805 9.31634C15.7373 9.38745 15.6311 9.52749 15.6053 9.69893L14.9451 14.0205L14.9262 14.1464C14.9696 13.862 15.2047 13.6527 15.4838 13.6527H16.6453C18.9266 13.6527 20.7128 12.695 21.2349 9.92486C21.2505 9.84287 21.2636 9.76308 21.2753 9.685C21.1433 9.61253 21.0002 9.55058 20.8462 9.49779C20.8081 9.48472 20.7689 9.47213 20.7293 9.45991Z" fill="#22284F"/>
<path fill-rule="evenodd" clip-rule="evenodd" d="M15.6054 9.69897C15.6312 9.52754 15.7375 9.3875 15.8807 9.31687C15.9461 9.28449 16.0182 9.26665 16.0947 9.26665H19.1977C19.5653 9.26665 19.9085 9.29158 20.2216 9.34388C20.3111 9.35866 20.398 9.37577 20.4829 9.39495C20.5673 9.41451 20.6496 9.43638 20.7294 9.46033C20.769 9.47255 20.8083 9.48526 20.8467 9.49784C21.0007 9.55063 21.1439 9.61307 21.276 9.68504C21.4313 8.66118 21.2747 7.96405 20.7391 7.3328C20.1486 6.63775 19.0829 6.34033 17.7192 6.34033H13.7601C13.4815 6.34033 13.2439 6.54965 13.2009 6.83461L11.5519 17.6382C11.5194 17.8519 11.6789 18.0447 11.8874 18.0447H14.3316L15.6054 9.69897Z" fill="#28356A"/>
</svg>
