<svg width="40" height="40" viewBox="0 0 40 40" fill="none" xmlns="http://www.w3.org/2000/svg">
<path d="M29.9956 36.593L28.7986 29.7164C28.6302 28.7479 28.9558 27.7602 29.6699 27.0745L34.74 22.2047C35.0864 21.8721 35.2088 21.3833 35.0592 20.93C34.9096 20.4767 34.5194 20.1526 34.0404 20.084L27.0336 19.0806C26.0467 18.9392 25.1939 18.3288 24.7527 17.4479L21.6197 11.192C21.4057 10.7643 20.972 10.4987 20.4883 10.4987C20.0047 10.4987 19.5711 10.7643 19.357 11.1916L16.2232 17.4482C15.782 18.3292 14.9292 18.9396 13.9423 19.081L6.93509 20.0843C6.45615 20.1529 6.06598 20.4771 5.91639 20.9304C5.76677 21.3837 5.88922 21.8721 6.23556 22.2051L11.3057 27.0749C12.0197 27.7606 12.3454 28.7483 12.1769 29.7171L10.98 36.5934C10.8981 37.0631 11.0905 37.5293 11.4821 37.8096C11.8737 38.0902 12.3827 38.1266 12.8109 37.9042L19.078 34.6576C19.9605 34.2003 21.0148 34.2 21.8976 34.6576L28.1646 37.9042C28.3508 38.0009 28.5523 38.0484 28.753 38.0484C29.0135 38.0484 29.2725 37.9681 29.4935 37.8096C29.8851 37.529 30.0775 37.0628 29.9956 36.593ZM27.5383 29.9298L28.7291 36.7722L22.4932 33.5416C21.8653 33.2164 21.1767 33.0537 20.4883 33.0537C19.7997 33.0537 19.111 33.2164 18.4835 33.5416L12.2473 36.7718L13.4381 29.9298C13.6779 28.5523 13.2146 27.1477 12.1991 26.1721L7.15406 21.3263L14.1261 20.3278C15.53 20.1268 16.7425 19.2587 17.37 18.0057L20.4881 11.7806L23.6063 18.0057C24.2337 19.2591 25.4467 20.1268 26.8502 20.3278L33.8223 21.3263L28.7773 26.1721C27.7617 27.1477 27.298 28.5523 27.5383 29.9298Z" fill="white"/>
<path d="M20.488 6.61977C20.8411 6.61977 21.1273 6.33776 21.1273 5.98972V2.58122C21.1273 2.23317 20.8411 1.95117 20.488 1.95117C20.1347 1.95117 19.8485 2.23317 19.8485 2.58122V5.98936C19.8481 6.3374 20.1347 6.61977 20.488 6.61977Z" fill="white"/>
<path d="M10.0613 8.67672C10.1798 8.87876 10.3946 8.99193 10.616 8.99193C10.7247 8.99193 10.8344 8.9648 10.9351 8.90732C11.2409 8.73349 11.346 8.34796 11.1692 8.04632L9.54764 5.27949C9.37121 4.97821 8.97994 4.87468 8.67382 5.04889C8.36806 5.22273 8.26299 5.60826 8.43979 5.9099L10.0613 8.67672Z" fill="white"/>
<path d="M30.0406 8.90721C30.1413 8.96432 30.2512 8.99181 30.3598 8.99181C30.5808 8.99181 30.796 8.87865 30.9144 8.67626L32.536 5.90796C32.7124 5.60667 32.6078 5.22115 32.3016 5.04695C31.9955 4.87311 31.6046 4.97627 31.4278 5.27791L29.8062 8.04619C29.6298 8.34783 29.7349 8.73335 30.0406 8.90721Z" fill="white"/>
</svg>
