<svg width="24" height="24" viewBox="0 0 24 24" fill="none" xmlns="http://www.w3.org/2000/svg">
<g clip-path="url(#clip0_643_29300)">
<path d="M22.4348 0H1.56522C1.1501 0 0.751977 0.158052 0.458441 0.439386C0.164906 0.72072 0 1.10229 0 1.50016V8.84718C0 19.7071 9.59217 23.3112 11.5148 23.9238C11.8296 24.0254 12.1704 24.0254 12.4852 23.9238C14.4078 23.3112 24 19.7071 24 8.84718V1.50016C24 1.10229 23.8351 0.72072 23.5416 0.439386C23.248 0.158052 22.8499 0 22.4348 0ZM22.9565 8.84968C22.9565 19.0232 13.9565 22.4023 12.1565 22.9762C12.0554 23.0112 11.9446 23.0112 11.8435 22.9762C10.0435 22.4023 1.04348 19.0232 1.04348 8.84968V1.50016C1.04348 1.36753 1.09845 1.24034 1.19629 1.14657C1.29414 1.05279 1.42684 1.0001 1.56522 1.0001H22.4348C22.5732 1.0001 22.7059 1.05279 22.8037 1.14657C22.9016 1.24034 22.9565 1.36753 22.9565 1.50016V8.84968Z" fill="white"/>
<path fill-rule="evenodd" clip-rule="evenodd" d="M16.933 7.15524C17.151 7.36674 17.1563 7.71494 16.9448 7.93296L11.1241 13.933C11.0205 14.0397 10.8781 14.1 10.7294 14.1C10.5806 14.1 10.4382 14.0397 10.3346 13.933L8.15524 11.6865C7.94373 11.4684 7.94901 11.1202 8.16704 10.9087C8.38506 10.6972 8.73326 10.7025 8.94476 10.9205L10.7294 12.7601L16.1552 7.16704C16.3667 6.94901 16.7149 6.94373 16.933 7.15524Z" fill="white"/>
</g>
<defs>
<clipPath id="clip0_643_29300">
<rect width="24" height="24" fill="white"/>
</clipPath>
</defs>
</svg>
