<svg width="24" height="24" viewBox="0 0 24 24" fill="none" xmlns="http://www.w3.org/2000/svg">
<path fill-rule="evenodd" clip-rule="evenodd" d="M2.5627 4.26497C3.31354 2.91787 4.76031 2 6.4186 2H14.7907C15.176 2 15.4884 2.31236 15.4884 2.69767V4.7907H16.5024C17.4269 4.7907 18.2677 5.29116 18.7243 6.07759L18.7266 6.08155L20.3177 8.86381L21.9084 11.6545C21.9684 11.7598 22 11.8788 22 12V16.6512C22 18.5807 20.4411 20.1395 18.5116 20.1395H18.1828C17.8791 21.2133 16.8919 22 15.7209 22C14.55 22 13.5628 21.2133 13.2591 20.1395H10.7409C10.4372 21.2133 9.45003 22 8.27907 22C7.10811 22 6.12091 21.2133 5.81722 20.1395H5.48837C3.55887 20.1395 2 18.5807 2 16.6512C2 16.2658 2.31236 15.9535 2.69767 15.9535C3.08299 15.9535 3.39535 16.2658 3.39535 16.6512C3.39535 17.81 4.3295 18.7442 5.48837 18.7442H5.81722C6.12091 17.6705 7.10811 16.8837 8.27907 16.8837C9.45003 16.8837 10.4372 17.6705 10.7409 18.7442H13.2591C13.5628 17.6705 14.55 16.8837 15.7209 16.8837C16.8919 16.8837 17.8791 17.6705 18.1828 18.7442H18.5116C19.6705 18.7442 20.6047 17.81 20.6047 16.6512V14.5581H18.5116C17.6147 14.5581 16.8837 13.8272 16.8837 12.9302V10.1395C16.8837 9.2435 17.6132 8.51311 18.5089 8.51163L17.5176 6.77824C17.5173 6.77767 17.5169 6.77709 17.5166 6.77651C17.3033 6.41048 16.9167 6.18605 16.5024 6.18605H15.4884V12C15.4884 13.4086 14.3388 14.5581 12.9302 14.5581H12C11.6147 14.5581 11.3023 14.2458 11.3023 13.8605C11.3023 13.4752 11.6147 13.1628 12 13.1628H12.9302C13.5682 13.1628 14.093 12.6379 14.093 12V3.39535H6.4186C5.2862 3.39535 4.29578 4.02164 3.78151 4.94431C3.59391 5.28087 3.169 5.40164 2.83243 5.21405C2.49587 5.02645 2.3751 4.60154 2.5627 4.26497ZM19.3062 9.90698H18.5116C18.3853 9.90698 18.2791 10.0132 18.2791 10.1395V12.9302C18.2791 13.0565 18.3853 13.1628 18.5116 13.1628H20.6047V12.1849L19.3062 9.90698ZM7.11628 19.4419C7.11628 20.0841 7.63688 20.6047 8.27907 20.6047C8.92126 20.6047 9.44186 20.0841 9.44186 19.4419C9.44186 18.8039 8.91701 18.2791 8.27907 18.2791C7.64113 18.2791 7.11628 18.8039 7.11628 19.4419ZM14.5581 19.4419C14.5581 20.0841 15.0787 20.6047 15.7209 20.6047C16.3631 20.6047 16.8837 20.0841 16.8837 19.4419C16.8837 18.8039 16.3589 18.2791 15.7209 18.2791C15.083 18.2791 14.5581 18.8039 14.5581 19.4419ZM2 8.27907C2 7.89375 2.31236 7.5814 2.69767 7.5814H8.27907C8.66438 7.5814 8.97674 7.89375 8.97674 8.27907C8.97674 8.66438 8.66438 8.97674 8.27907 8.97674H2.69767C2.31236 8.97674 2 8.66438 2 8.27907ZM2 11.0698C2 10.6845 2.31236 10.3721 2.69767 10.3721H6.4186C6.80392 10.3721 7.11628 10.6845 7.11628 11.0698C7.11628 11.4551 6.80392 11.7674 6.4186 11.7674H2.69767C2.31236 11.7674 2 11.4551 2 11.0698ZM2 13.8605C2 13.4752 2.31236 13.1628 2.69767 13.1628H4.55814C4.94345 13.1628 5.25581 13.4752 5.25581 13.8605C5.25581 14.2458 4.94345 14.5581 4.55814 14.5581H2.69767C2.31236 14.5581 2 14.2458 2 13.8605Z" fill="#0A0A0A"/>
</svg>
