<svg width="34" height="25" viewBox="0 0 34 25" fill="none" xmlns="http://www.w3.org/2000/svg">
<rect x="0.5" y="1.11035" width="33" height="23" rx="3.5" fill="white"/>
<rect x="0.5" y="1.11035" width="33" height="23" rx="3.5" stroke="#F9F7F6"/>
<path fill-rule="evenodd" clip-rule="evenodd" d="M18.2682 8.75227L16.541 9.13384V7.69237L18.2682 7.31787V8.75227ZM21.8599 9.55073C21.1856 9.55073 20.7521 9.87577 20.5113 10.1019L20.4218 9.66379H18.908V17.9028L20.6282 17.5283L20.6351 15.5286C20.8828 15.7123 21.2475 15.9738 21.853 15.9738C23.0847 15.9738 24.2063 14.9563 24.2063 12.7163C24.1995 10.6672 23.0641 9.55073 21.8599 9.55073ZM21.4471 14.4192C21.0411 14.4192 20.8002 14.2708 20.6351 14.0871L20.6282 11.4656C20.8071 11.2607 21.0548 11.1194 21.4471 11.1194C22.0732 11.1194 22.5067 11.8401 22.5067 12.7658C22.5067 13.7126 22.0801 14.4192 21.4471 14.4192ZM29.6286 12.787C29.6286 10.9781 28.7754 9.55073 27.1446 9.55073C25.5069 9.55073 24.5161 10.9781 24.5161 12.7728C24.5161 14.8997 25.6858 15.9738 27.3648 15.9738C28.1836 15.9738 28.8029 15.783 29.2708 15.5145V14.1013C28.8029 14.3415 28.2662 14.4899 27.585 14.4899C26.9175 14.4899 26.3257 14.2496 26.2501 13.4159H29.6148C29.6148 13.3769 29.6173 13.2885 29.6202 13.1866L29.6202 13.1865C29.624 13.048 29.6286 12.8847 29.6286 12.787ZM26.2294 12.1157C26.2294 11.3172 26.7042 10.9851 27.1377 10.9851C27.5574 10.9851 28.0047 11.3172 28.0047 12.1157H26.2294ZM16.5409 9.67087H18.2681V15.8536H16.5409V9.67087ZM14.58 9.67086L14.6901 10.1937C15.0961 9.43062 15.9012 9.58607 16.1214 9.67086V11.296C15.908 11.2183 15.22 11.1194 14.814 11.6635V15.8536H13.0937V9.67086H14.58ZM11.2495 8.13752L9.57056 8.50496L9.56368 14.1648C9.56368 15.2106 10.3275 15.9808 11.3459 15.9808C11.9101 15.9808 12.323 15.8748 12.55 15.7476V14.3132C12.3298 14.4051 11.2426 14.7301 11.2426 13.6844V11.1759H12.55V9.67085H11.2426L11.2495 8.13752ZM7.18295 11.0841C6.81826 11.0841 6.59807 11.1901 6.59807 11.4656C6.59807 11.7665 6.97702 11.8989 7.44715 12.0631C8.21358 12.3308 9.22234 12.6831 9.2266 13.9882C9.2266 15.253 8.24262 15.9808 6.81138 15.9808C6.21961 15.9808 5.5728 15.8607 4.93287 15.5781V13.8964C5.51087 14.2214 6.24026 14.4616 6.81138 14.4616C7.19671 14.4616 7.47195 14.3557 7.47195 14.0306C7.47195 13.6973 7.06116 13.545 6.56522 13.3611C5.80994 13.081 4.85718 12.7277 4.85718 11.5504C4.85718 10.2997 5.78611 9.55075 7.18295 9.55075C7.75407 9.55075 8.31831 9.64261 8.88944 9.87578V11.5363C8.36648 11.2466 7.70591 11.0841 7.18295 11.0841Z" fill="#6461FC"/>
</svg>
