<svg width="24" height="24" viewBox="0 0 24 24" fill="none" xmlns="http://www.w3.org/2000/svg">
<path fill-rule="evenodd" clip-rule="evenodd" d="M1.23999 12C1.23999 9.07578 3.6158 6.70001 6.54001 6.70001C8.30541 6.70001 9.83507 7.5677 10.787 8.87952C11.0303 9.21476 10.9557 9.68375 10.6205 9.92702C10.2852 10.1703 9.81625 10.0957 9.57298 9.7605C8.88492 8.81231 7.7946 8.20001 6.54001 8.20001C4.44422 8.20001 2.73999 9.90422 2.73999 12C2.73999 14.0958 4.44422 15.8 6.54001 15.8C7.96616 15.8 9.29223 15.0486 10.0269 13.8242L11.3561 11.6154L11.3574 11.6133L12.6769 9.40411C13.6822 7.72855 15.4962 6.70001 17.45 6.70001C20.3742 6.70001 22.75 9.07579 22.75 12C22.75 14.9242 20.3742 17.3 17.45 17.3C15.693 17.3 14.1657 16.4311 13.2055 15.124C12.9603 14.7901 13.0322 14.3207 13.366 14.0755C13.6998 13.8303 14.1693 13.9022 14.4145 14.236C15.1143 15.1888 16.207 15.8 17.45 15.8C19.5458 15.8 21.25 14.0958 21.25 12C21.25 9.90421 19.5458 8.20001 17.45 8.20001C16.0241 8.20001 14.6982 8.95118 13.9635 10.1753C13.9634 10.1755 13.9636 10.1751 13.9635 10.1753L12.6439 12.3846L12.6426 12.3867L11.3131 14.5959C11.313 14.5961 11.3132 14.5957 11.3131 14.5959C10.3077 16.2712 8.49367 17.3 6.54001 17.3C3.6158 17.3 1.23999 14.9242 1.23999 12Z" fill="#0A0A0A"/>
</svg>
