<svg width="24" height="24" viewBox="0 0 24 24" fill="none" xmlns="http://www.w3.org/2000/svg">
<path fill-rule="evenodd" clip-rule="evenodd" d="M13.0995 3.6934C12.4129 3.29513 11.5757 3.29714 10.9019 3.69258L5.46868 6.88181C4.78974 7.28836 4.37265 8.0276 4.37265 8.81863V15.1814C4.37265 15.9847 4.79211 16.7212 5.46618 17.1167L10.8992 20.3059L10.9005 20.3067C11.5872 20.7049 12.4243 20.7029 13.0981 20.3075L18.5293 17.1194L18.5314 17.1182C19.2103 16.7116 19.6274 15.9724 19.6274 15.1814V8.81863C19.6274 8.01953 19.2113 7.28895 18.5313 6.8818L18.5293 6.88057L13.1008 3.69412L13.0995 3.6934ZM10.2156 2.48416C11.3166 1.83798 12.6751 1.83976 13.7818 2.48262L13.7845 2.48419L19.2247 5.67753C20.3188 6.33108 21 7.51622 21 8.81863V15.1814C21 16.4733 20.3198 17.6683 19.2247 18.3225L19.2202 18.3252L13.7845 21.5158C12.6834 22.162 11.3249 22.1603 10.2182 21.5174L10.2155 21.5158L4.77988 18.3252C3.67866 17.6789 3 16.4804 3 15.1814V8.81863C3 7.52674 3.68018 6.33173 4.77532 5.67755L4.77982 5.67486L10.2156 2.48416Z" fill="white"/>
<path fill-rule="evenodd" clip-rule="evenodd" d="M12 7.46105C11.15 7.46105 10.461 8.15004 10.461 8.99997C10.461 9.84993 11.1501 10.539 12 10.539C12.8499 10.539 13.539 9.84993 13.539 8.99997C13.539 8.15004 12.85 7.46105 12 7.46105ZM9 8.99997C9 7.34309 10.3432 6 12 6C13.6568 6 15 7.34309 15 8.99997C15 10.6568 13.6569 12 12 12C10.3431 12 9 10.6568 9 8.99997Z" fill="white"/>
<path fill-rule="evenodd" clip-rule="evenodd" d="M8 16.3697C8 14.3948 9.91689 13 12 13C14.0831 13 16 14.3948 16 16.3697C16 16.7178 15.7172 17 15.3684 17C15.0196 17 14.7368 16.7178 14.7368 16.3697C14.7368 15.3195 13.639 14.2605 12 14.2605C10.361 14.2605 9.26316 15.3195 9.26316 16.3697C9.26316 16.7178 8.98039 17 8.63158 17C8.28277 17 8 16.7178 8 16.3697Z" fill="white"/>
</svg>
