<svg width="34" height="25" viewBox="0 0 34 25" fill="none" xmlns="http://www.w3.org/2000/svg">
<rect x="0.5" y="1.11035" width="33" height="23" rx="3.5" fill="white"/>
<rect x="0.5" y="1.11035" width="33" height="23" rx="3.5" stroke="#F9F7F6"/>
<path fill-rule="evenodd" clip-rule="evenodd" d="M10.7502 16.4686H8.6905L7.14594 10.4027C7.07263 10.1237 6.91697 9.87699 6.688 9.76073C6.11658 9.46856 5.4869 9.23603 4.79999 9.11876V8.88522H8.11807C8.57601 8.88522 8.91947 9.23603 8.97671 9.64346L9.77811 14.019L11.8368 8.88522H13.8393L10.7502 16.4686ZM14.9842 16.4686H13.039L14.6408 8.88522H16.586L14.9842 16.4686ZM19.1027 10.986C19.1599 10.5776 19.5034 10.3441 19.9041 10.3441C20.5338 10.2854 21.2197 10.4027 21.7921 10.6939L22.1356 9.06114C21.5631 8.8276 20.9335 8.71033 20.362 8.71033C18.474 8.71033 17.1002 9.76073 17.1002 11.2186C17.1002 12.3276 18.0733 12.9099 18.7602 13.2607C19.5034 13.6105 19.7896 13.8441 19.7324 14.1939C19.7324 14.7186 19.1599 14.9521 18.5885 14.9521C17.9016 14.9521 17.2147 14.7772 16.586 14.485L16.2426 16.1188C16.9295 16.4099 17.6726 16.5272 18.3595 16.5272C20.4765 16.5848 21.7921 15.5354 21.7921 13.9603C21.7921 11.9768 19.1027 11.8605 19.1027 10.986ZM28.6 16.4686L27.0554 8.88522H25.3964C25.0529 8.88522 24.7095 9.11876 24.595 9.46856L21.7349 16.4686H23.7374L24.137 15.3605H26.5975L26.8265 16.4686H28.6ZM25.6826 10.9274L26.254 13.7854H24.6522L25.6826 10.9274Z" fill="#172B85"/>
</svg>
