<svg width="24" height="25" viewBox="0 0 24 25" fill="none" xmlns="http://www.w3.org/2000/svg">
<path d="M2 22.3318L3.42987 17.1112C2.54651 15.5797 2.08252 13.8424 2.08465 12.0744C2.08698 6.51931 6.60766 2 12.1629 2C14.8587 2.00137 17.389 3.05045 19.292 4.9548C21.195 6.85915 22.242 9.39042 22.241 12.0825C22.2386 17.6372 17.7172 22.1573 12.1628 22.1573H12.1584C10.4718 22.1567 8.81458 21.7335 7.34253 20.9309L2 22.3318Z" fill="white"/>
<path d="M12.1659 3.7019C7.54539 3.7019 3.78779 7.45813 3.78614 12.0751C3.78387 13.6517 4.22783 15.1967 5.06671 16.5315L5.26601 16.8484L4.41965 19.9382L7.59004 19.1069L7.89618 19.2883C9.18195 20.0514 10.6562 20.4549 12.1596 20.4557H12.1628C16.7797 20.4557 20.5373 16.6991 20.5391 12.0818C20.5426 10.9813 20.3278 9.89105 19.907 8.87414C19.4863 7.85724 18.868 6.93389 18.088 6.15756C17.3123 5.37699 16.3895 4.75803 15.3729 4.33651C14.3564 3.91499 13.2664 3.69929 12.1659 3.7019Z" fill="url(#paint0_linear_33_3762)"/>
<path fill-rule="evenodd" clip-rule="evenodd" d="M9.64398 7.86261C9.45523 7.44333 9.25661 7.43484 9.07732 7.42758L8.59462 7.42169C8.42669 7.42169 8.15384 7.4847 7.92317 7.73673C7.69251 7.98876 7.04175 8.59789 7.04175 9.83681C7.04175 11.0757 7.94413 12.2729 8.06987 12.4411C8.19562 12.6093 9.81191 15.2328 12.3715 16.2421C14.4986 17.0809 14.9314 16.9141 15.3933 16.8722C15.8552 16.8303 16.8832 16.2631 17.0929 15.675C17.3026 15.087 17.3027 14.5832 17.2399 14.4779C17.177 14.3726 17.0091 14.31 16.757 14.184C16.505 14.0579 15.2672 13.4488 15.0364 13.3647C14.8056 13.2806 14.6378 13.2388 14.4697 13.4909C14.3016 13.7429 13.8196 14.3098 13.6726 14.4779C13.5257 14.646 13.379 14.6671 13.1269 14.5412C12.8749 14.4153 12.064 14.1493 11.1019 13.2914C10.3534 12.624 9.84807 11.7996 9.70096 11.5478C9.55385 11.2959 9.68534 11.1594 9.81163 11.034C9.92464 10.9211 10.0634 10.7399 10.1895 10.5929C10.3157 10.4459 10.3572 10.3409 10.441 10.1731C10.5249 10.0053 10.4831 9.85791 10.4201 9.73203C10.3571 9.60615 9.86779 8.36065 9.64398 7.86261Z" fill="white"/>
<defs>
<linearGradient id="paint0_linear_33_3762" x1="11.9921" y1="4.70728" x2="12.077" y2="19.0245" gradientUnits="userSpaceOnUse">
<stop stop-color="#57D163"/>
<stop offset="1" stop-color="#23B33A"/>
</linearGradient>
</defs>
</svg>
