<!-- Generated by IcoMoon.io -->
<svg version="1.1" xmlns="http://www.w3.org/2000/svg" width="32" height="32" viewBox="0 0 32 32">
<title>WhatsAppHeader</title>
<path d="M2.667 29.719l1.907-6.947c-1.178-2.038-1.796-4.35-1.794-6.703 0.003-7.393 6.031-13.407 13.438-13.407 3.594 0.002 6.968 1.398 9.505 3.932s3.933 5.903 3.932 9.485c-0.003 7.392-6.032 13.407-13.438 13.407h-0.006c-2.249-0.001-4.458-0.564-6.421-1.632l-7.123 1.864z"></path>
<path d="M16.221 4.926c-6.161 0-11.171 4.999-11.173 11.143-0.003 2.098 0.589 4.154 1.707 5.93l0.266 0.422-1.128 4.112 4.227-1.106 0.408 0.241c1.714 1.015 3.68 1.553 5.685 1.554h0.004c6.156 0 11.166-4.999 11.168-11.144 0.005-1.465-0.282-2.915-0.843-4.269s-1.385-2.582-2.425-3.615c-1.034-1.039-2.265-1.862-3.62-2.423s-2.809-0.848-4.276-0.845z"></path>
<path d="M12.859 10.463c-0.252-0.558-0.516-0.569-0.756-0.579l-0.644-0.008c-0.224 0-0.588 0.084-0.895 0.419s-1.175 1.146-1.175 2.795c0 1.649 1.203 3.242 1.371 3.466s2.323 3.715 5.736 5.058c2.836 1.116 3.413 0.894 4.029 0.838s1.986-0.811 2.266-1.593c0.28-0.783 0.28-1.453 0.196-1.593s-0.308-0.223-0.644-0.391c-0.336-0.168-1.986-0.978-2.294-1.090s-0.531-0.168-0.756 0.168c-0.224 0.335-0.867 1.090-1.063 1.313s-0.392 0.252-0.728 0.084-1.417-0.521-2.7-1.663c-0.998-0.888-1.672-1.985-1.868-2.32s-0.021-0.517 0.148-0.684c0.151-0.15 0.336-0.391 0.504-0.587s0.224-0.335 0.335-0.559c0.112-0.223 0.056-0.419-0.028-0.587s-0.736-1.825-1.035-2.488z"></path>
</svg>
