<svg width="18" height="18" viewBox="0 0 18 18" fill="none" xmlns="http://www.w3.org/2000/svg">
<path d="M9.04828 3.75H9.13173C9.9024 3.7528 13.8073 3.78083 14.8602 4.06297C15.1785 4.14908 15.4685 4.31692 15.7013 4.54972C15.9342 4.78252 16.1016 5.07213 16.1869 5.3896C16.2815 5.74462 16.3481 6.21454 16.3931 6.69942L16.4025 6.79658L16.4231 7.03948L16.4306 7.13664C16.4916 7.99055 16.4991 8.79026 16.5 8.96497V9.03503C16.4991 9.21628 16.4906 10.0702 16.4231 10.9596L16.4156 11.0577L16.4072 11.1548C16.3603 11.6892 16.2909 12.2199 16.1869 12.6104C16.1018 12.928 15.9345 13.2177 15.7017 13.4506C15.4688 13.6834 15.1786 13.8512 14.8602 13.937C13.7726 14.2285 9.63895 14.2491 9.0661 14.25H8.93296C8.64326 14.25 7.44506 14.2444 6.18873 14.2014L6.02935 14.1958L5.94778 14.1921L5.62713 14.179C4.58644 14.1332 3.59544 14.0594 3.13885 13.9361C2.82054 13.8503 2.53044 13.6827 2.2976 13.45C2.06477 13.2174 1.89738 12.9278 1.81221 12.6104C1.70814 12.2208 1.63876 11.6892 1.59188 11.1548L1.57688 10.9596C1.53061 10.3265 1.50497 9.69216 1.5 9.05746V8.94254C1.50188 8.74168 1.50938 8.04753 1.56 7.28145L1.56657 7.18523L1.56938 7.13664L1.57688 7.03948L1.59751 6.79658L1.60688 6.69942C1.65188 6.21454 1.71845 5.74368 1.81314 5.3896C1.89818 5.072 2.0655 4.78226 2.29834 4.54942C2.53119 4.31658 2.82137 4.14882 3.13979 4.06297C3.59638 3.94152 4.58738 3.86678 5.62807 3.82007L5.78746 3.81353L6.02935 3.80512L6.18967 3.79858C7.08195 3.76997 7.9746 3.75409 8.86734 3.75093H9.04828V3.75ZM7.50038 6.74893V11.2501L11.3978 9.00047L7.50038 6.74893Z" fill="white"/>
</svg>
